<?xml version="1.0" standalone="no"?><!DOCTYPE svg PUBLIC "-//W3C//DTD SVG 1.1//EN" "http://www.w3.org/Graphics/SVG/1.1/DTD/svg11.dtd"><svg height="1024" node-id="1" sillyvg="true" template-height="1024" template-width="1024" version="1.1" viewBox="0 0 1024 1024" width="1024" xmlns="http://www.w3.org/2000/svg" xmlns:xlink="http://www.w3.org/1999/xlink"><defs node-id="14"></defs><path d="M 0.00 0.00 L 1024.00 0.00 L 1024.00 1024.00 L 0.00 1024.00 Z" fill="#fff0f0" fill-rule="nonzero" node-id="16" stroke="none" target-height="1024" target-width="1024" target-x="0" target-y="0"></path><path d="M 477.44 728.71 C 504.40 737.67 532.50 743.37 560.76 747.36 C 549.52 764.14 539.58 781.65 529.08 798.84 C 509.85 803.97 490.88 809.75 472.14 816.35 C 463.34 806.01 454.38 795.91 445.42 785.97 C 455.85 766.75 466.68 747.69 477.44 728.71 Z" fill="#fefefe" fill-rule="nonzero" node-id="18" stroke="none" target-height="87.64404" target-width="115.33902" target-x="445.423" target-y="728.709"></path><path d="M 648.24 541.77 C 676.10 571.91 699.97 605.63 729.13 634.71 C 735.48 642.37 741.67 650.19 747.70 658.33 C 735.48 648.56 723.91 637.89 713.24 626.65 C 689.38 600.09 666.33 572.56 648.24 541.77 Z" fill="#fcfcfd" fill-rule="nonzero" node-id="20" stroke="none" target-height="116.56" target-width="99.454956" target-x="648.244" target-y="541.772"></path><path d="M 547.89 565.15 C 571.76 593.25 593.42 623.55 621.77 647.66 C 612.73 642.86 604.10 637.32 595.95 631.45 C 577.62 611.09 560.36 589.50 547.89 565.15 Z" fill="#fcfcfd" fill-rule="nonzero" node-id="22" stroke="none" target-height="82.513" target-width="73.87799" target-x="547.893" target-y="565.149"></path><path d="M 646.62 628.44 C 632.03 614.35 618.68 599.20 606.95 582.91 C 630.41 603.35 652.72 625.26 674.80 647.34 C 676.10 649.94 678.71 655.24 680.01 657.92 C 668.53 648.31 657.28 638.70 646.62 628.44 Z" fill="#fcfcfd" fill-rule="nonzero" node-id="24" stroke="none" target-height="75.01898" target-width="73.063965" target-x="606.947" target-y="582.906"></path><path d="M 292.21 345.47 C 305.89 310.69 330.49 271.43 370.49 265.40 C 394.35 259.86 409.18 281.12 423.76 295.86 C 419.44 301.40 410.81 312.32 406.49 317.77 C 362.75 371.37 390.36 446.96 421.31 499.99 C 435.57 522.71 448.28 548.37 471.08 563.93 C 509.04 588.12 539.67 622.25 579.34 644.08 C 608.41 662.00 638.55 678.13 669.02 693.68 C 651.99 713.80 630.16 729.28 605.81 739.22 C 595.71 743.21 584.79 744.27 574.37 745.81 C 570.95 746.22 564.10 746.96 560.76 747.36 C 532.50 743.37 504.40 737.67 477.44 728.71 C 474.58 727.32 468.80 724.55 465.87 723.09 C 391.10 684.97 328.38 621.03 298.89 541.69 C 273.23 479.54 274.78 409.49 292.21 345.47 Z" fill="#f2dccf" fill-rule="nonzero" node-id="26" stroke="none" target-height="487.501" target-width="395.785" target-x="273.231" target-y="259.861"></path><path d="M 308.99 187.12 C 328.94 175.31 344.01 211.15 323.49 219.30 C 303.29 231.60 285.77 195.19 308.99 187.12 Z" fill="#fdfdfc" fill-rule="nonzero" node-id="28" stroke="none" target-height="56.283997" target-width="58.239014" target-x="285.774" target-y="175.312"></path><path d="M 234.87 171.08 C 270.87 122.77 337.74 100.46 395.57 117.89 C 471.98 137.11 525.00 207.08 544.96 280.39 C 601.82 302.87 646.70 346.61 683.27 394.42 C 692.07 405.91 701.03 418.70 699.40 434.33 C 658.18 389.13 620.88 337.98 566.38 307.67 C 533.07 287.39 489.25 282.75 454.14 300.91 C 438.83 308.08 422.78 313.78 406.49 317.77 C 410.81 312.32 419.44 301.40 423.76 295.86 C 409.18 281.12 394.35 259.86 370.49 265.40 C 330.49 271.43 305.89 310.69 292.21 345.47 C 280.97 317.37 269.16 276.23 233.07 273.71 C 204.73 265.07 169.62 273.55 146.00 253.18 C 165.88 238.68 188.93 229.89 210.92 219.22 C 220.61 204.23 223.54 185.33 234.87 171.08 Z M 308.99 187.12 C 285.77 195.19 303.29 231.60 323.49 219.30 C 344.01 211.15 328.94 175.31 308.99 187.12 Z" fill="#38455d" fill-rule="nonzero" node-id="30" stroke="none" target-height="333.879" target-width="555.027" target-x="146" target-y="100.456"></path><path d="M 454.14 300.91 C 489.25 282.75 533.07 287.39 566.38 307.67 C 620.87 337.98 658.18 389.13 699.40 434.33 C 731.41 493.63 766.19 551.38 801.62 608.81 C 797.71 612.23 790.05 619.07 786.14 622.41 L 778.41 621.51 C 760.65 617.28 744.68 628.20 729.13 634.71 C 699.97 605.63 676.10 571.91 648.24 541.77 C 666.33 572.56 689.38 600.09 713.24 626.65 C 700.29 633.33 687.34 640.09 674.80 647.34 C 652.72 625.26 630.40 603.35 606.95 582.91 C 618.68 599.20 632.03 614.35 646.61 628.44 C 640.42 633.25 628.04 642.86 621.77 647.66 C 593.42 623.55 571.76 593.25 547.89 565.15 C 560.36 589.50 577.62 611.09 595.95 631.45 C 591.79 634.63 583.49 640.90 579.33 644.08 C 539.66 622.25 509.04 588.12 471.08 563.93 C 448.27 548.37 435.57 522.71 421.31 499.99 C 390.36 446.96 362.75 371.37 406.49 317.77 C 422.78 313.78 438.83 308.08 454.14 300.91 Z" fill="#4f6966" fill-rule="nonzero" node-id="32" stroke="none" target-height="364.913" target-width="438.873" target-x="362.747" target-y="282.749"></path><path d="M 729.13 634.71 C 744.68 628.20 760.65 617.28 778.41 621.51 C 806.83 665.09 850.17 696.45 878.76 739.87 C 808.54 743.70 741.43 713.88 675.53 693.03 C 703.79 741.99 733.61 790.29 757.47 841.68 C 765.70 859.85 771.00 886.40 752.50 900.33 C 738.50 907.34 727.34 895.53 717.40 887.79 C 713.65 897.07 711.70 917.85 696.47 910.43 C 679.20 892.76 677.98 866.12 669.99 843.88 C 659.24 803.40 631.30 771.15 605.81 739.22 C 630.16 729.28 651.99 713.80 669.01 693.68 C 638.55 678.13 608.41 662.00 579.33 644.08 C 583.49 640.90 591.80 634.63 595.95 631.45 C 604.10 637.32 612.73 642.86 621.77 647.66 C 628.04 642.86 640.42 633.25 646.62 628.44 C 657.28 638.70 668.53 648.31 680.01 657.93 C 678.71 655.24 676.10 649.94 674.80 647.34 C 687.34 640.09 700.29 633.33 713.24 626.65 C 723.91 637.89 735.48 648.56 747.70 658.33 C 741.67 650.19 735.48 642.37 729.13 634.71 Z" fill="#38445c" fill-rule="nonzero" node-id="34" stroke="none" target-height="300.56494" target-width="299.424" target-x="579.334" target-y="617.28"></path><path d="M 465.87 723.09 C 468.80 724.55 474.58 727.33 477.43 728.71 C 466.68 747.69 455.85 766.75 445.42 785.97 C 454.38 795.91 463.34 806.01 472.14 816.35 C 490.87 809.76 509.85 803.97 529.08 798.84 C 539.58 781.65 549.52 764.14 560.76 747.36 C 564.10 746.96 570.94 746.22 574.36 745.81 C 564.43 765.28 554.24 784.59 543.90 803.81 C 554.00 814.72 570.70 823.36 571.76 840.06 C 557.01 842.99 549.03 826.29 538.44 819.29 C 516.78 835.33 503.34 862.13 477.43 871.82 C 482.00 861.48 487.21 851.54 493.07 842.01 C 482.40 850.32 471.08 857.24 458.94 862.86 C 462.28 855.53 468.88 840.87 472.22 833.54 C 466.03 835.17 453.73 838.35 447.54 839.98 C 451.20 832.07 455.03 824.34 459.11 816.76 C 450.96 811.79 442.98 806.82 435.16 801.94 C 416.18 819.61 398.99 839.16 378.39 855.04 C 374.07 840.06 382.87 830.12 393.45 821.57 C 391.42 821.89 387.51 822.62 385.55 823.03 C 377.00 828.41 368.45 833.70 359.90 839.00 C 361.44 834.44 364.54 825.23 366.09 820.67 L 349.88 816.43 C 371.14 792.32 404.21 785.97 433.94 778.23 C 444.36 759.74 455.03 741.34 465.87 723.09 Z" fill="#323e57" fill-rule="nonzero" node-id="36" stroke="none" target-height="148.73499" target-width="224.487" target-x="349.877" target-y="723.089"></path></svg>