<?xml version="1.0" standalone="no"?><!DOCTYPE svg PUBLIC "-//W3C//DTD SVG 1.1//EN" "http://www.w3.org/Graphics/SVG/1.1/DTD/svg11.dtd"><svg height="1024" node-id="1" sillyvg="true" template-height="1024" template-width="1024" version="1.1" viewBox="0 0 1024 1024" width="1024" xmlns="http://www.w3.org/2000/svg" xmlns:xlink="http://www.w3.org/1999/xlink"><defs node-id="7"></defs><path d="M 0.00 0.00 L 1024.00 0.00 L 1024.00 1024.00 L 0.00 1024.00 Z" fill="#fff0f0" fill-rule="nonzero" node-id="9" stroke="none" target-height="1024" target-width="1024" target-x="0" target-y="0"></path><path d="M 784.09 192.39 C 794.21 140.52 848.15 117.86 895.53 112.00 C 877.48 200.33 837.22 282.56 810.77 368.58 C 786.04 356.62 756.95 350.53 731.30 363.75 C 670.00 387.22 660.46 460.82 622.73 507.40 C 599.96 478.99 578.68 448.98 565.00 415.05 C 581.67 362.49 608.01 313.26 645.27 272.32 C 655.17 291.99 664.60 311.88 674.49 331.67 C 670.69 307.63 665.17 283.94 659.65 260.25 C 673.80 247.25 688.63 235.06 704.39 224.02 C 713.93 248.75 722.68 273.82 731.42 299.00 C 734.29 265.31 733.49 231.49 734.98 197.80 C 749.13 184.11 765.92 173.65 782.48 163.06 C 782.83 170.31 783.63 185.03 784.09 192.39 Z" fill="#2d3435" fill-rule="nonzero" node-id="11" stroke="none" target-height="395.4" target-width="330.53497" target-x="564.999" target-y="112"></path><path d="M 141.77 210.10 C 132.45 191.12 112.55 157.66 136.02 142.71 C 212.50 158.00 280.35 199.52 350.85 231.26 C 436.30 271.40 534.41 317.40 565.00 415.05 C 578.68 448.98 599.96 478.99 622.73 507.40 C 660.46 460.82 670.00 387.21 731.30 363.75 C 756.95 350.53 786.04 356.62 810.77 368.58 C 821.12 376.06 831.47 383.65 841.59 391.70 C 817.21 419.07 793.17 449.55 757.52 462.55 C 721.99 476.81 686.79 491.87 653.33 510.39 C 676.56 519.48 714.39 510.50 725.55 539.26 C 709.68 594.12 649.99 620.11 628.02 672.21 L 626.53 674.74 C 593.52 691.41 557.98 704.18 528.42 726.72 C 503.24 782.27 497.26 844.84 471.61 900.38 C 465.86 890.61 460.34 880.72 455.05 870.83 C 447.00 884.63 439.18 898.66 427.91 910.16 C 421.81 893.60 416.18 876.81 411.00 860.02 C 396.05 878.42 380.87 896.82 362.58 912.00 C 364.77 873.24 381.21 837.82 397.89 803.55 C 434.69 729.94 464.94 651.85 517.15 587.10 C 500.36 575.72 481.50 566.17 469.54 549.38 C 460.92 526.61 474.37 503.49 479.32 481.52 C 467.82 497.97 455.97 514.18 444.01 530.29 C 422.73 519.01 380.06 516.25 379.95 487.04 C 397.78 471.06 417.21 457.03 435.27 441.15 C 407.90 452.31 381.79 467.26 352.69 473.13 C 325.67 470.14 309.68 444.95 292.43 427.01 C 325.32 416.08 358.44 405.85 390.42 392.16 C 351.77 398.49 313.13 405.39 274.26 410.45 C 256.31 393.08 237.80 374.56 233.31 348.92 C 266.32 348.69 299.33 350.64 332.34 349.61 C 292.20 341.33 247.69 346.04 211.58 324.31 C 192.25 313.38 193.29 289.34 189.38 270.60 C 217.21 274.85 245.16 279.68 273.22 283.48 C 225.15 269.10 167.30 258.98 141.77 210.10 Z" fill="#353b3f" fill-rule="nonzero" node-id="13" stroke="none" target-height="769.29297" target-width="729.04" target-x="112.554" target-y="142.707"></path><path d="M 841.59 391.70 C 860.34 391.82 879.09 392.16 898.06 392.74 C 873.45 409.30 839.29 418.96 830.32 450.70 C 797.78 547.77 728.89 640.00 628.02 672.21 C 649.99 620.11 709.68 594.12 725.55 539.26 C 714.39 510.50 676.56 519.48 653.33 510.39 C 686.79 491.87 721.99 476.81 757.52 462.55 C 793.17 449.55 817.21 419.07 841.59 391.70 Z" fill="#e86756" fill-rule="nonzero" node-id="15" stroke="none" target-height="280.50598" target-width="270.04102" target-x="628.023" target-y="391.701"></path></svg>