<?xml version="1.0" standalone="no"?><!DOCTYPE svg PUBLIC "-//W3C//DTD SVG 1.1//EN" "http://www.w3.org/Graphics/SVG/1.1/DTD/svg11.dtd"><svg height="87" node-id="1" sillyvg="true" template-height="87" template-width="188" version="1.1" viewBox="0 0 188 87" width="188" xmlns="http://www.w3.org/2000/svg" xmlns:xlink="http://www.w3.org/1999/xlink"><defs node-id="14"><linearGradient gradientUnits="userSpaceOnUse" id="未命名的渐变_87" node-id="5" spreadMethod="pad" x1="203.71" x2="208.97" y1="116.65" y2="186.79"><stop offset="0" stop-color="#553393"></stop><stop offset="1" stop-color="#c5de9a"></stop></linearGradient><linearGradient gradientUnits="userSpaceOnUse" id="未命名的渐变_87-2" node-id="8" spreadMethod="pad" x1="203.71" x2="208.97" y1="130.24" y2="200.39"><stop offset="0" stop-color="#7d6adb"></stop><stop offset="1" stop-color="#c5de9a"></stop></linearGradient><linearGradient gradientUnits="userSpaceOnUse" id="未命名的渐变_87-3" node-id="9" spreadMethod="pad" x1="207.82" x2="210.81" y1="166.33" y2="206.13"><stop offset="0" stop-color="#a28fea"></stop><stop offset="1" stop-color="#c5de9a"></stop></linearGradient></defs><g node-id="49"><path d="M 0.00 20.16 L 1.28 18.34 L 2.71 16.52 L 4.91 14.04 L 7.44 11.56 L 10.57 8.99 L 14.03 6.74 L 17.94 4.92 L 20.69 4.08 L 23.60 3.62 L 26.70 3.57 L 29.76 3.98 L 33.02 4.98 L 36.54 6.65 L 39.79 8.78 L 43.31 11.81 L 47.13 15.90 L 50.54 20.30 L 54.21 25.95 L 58.16 33.05 L 61.67 40.33 L 65.38 49.19 L 69.31 59.83 L 69.90 61.36 L 70.61 62.83 L 71.74 64.61 L 73.17 66.23 L 74.97 67.52 L 76.32 68.06 L 77.87 68.25 L 79.69 68.05 L 81.43 67.46 L 83.52 66.23 L 86.05 64.17 L 88.31 61.83 L 90.99 58.47 L 94.15 53.83 L 96.49 50.45 L 99.05 47.40 L 101.83 44.66 L 104.87 42.22 L 108.05 40.25 L 111.38 38.72 L 114.88 37.66 L 118.48 37.17 L 122.24 37.24 L 125.00 37.68 L 127.84 38.51 L 130.78 39.75 L 133.85 41.46 L 136.63 43.40 L 139.51 45.86 L 142.51 48.90 L 145.63 52.60 L 149.79 57.51 L 153.79 61.58 L 157.66 64.90 L 161.79 67.92 L 165.62 70.32 L 169.19 72.17 L 174.58 74.40 L 178.97 75.73 L 183.06 76.57 L 185.76 76.90 L 188.30 77.00 L 0.00 77.00 Z" fill="url(#未命名的渐变_87)" fill-rule="nonzero" group-id="1" node-id="37" stroke="none" target-height="73.43294" target-width="188.29999" target-x="0" target-y="3.5653763"></path></g><g node-id="50"><path d="M 0.00 30.22 L 1.28 28.40 L 2.71 26.58 L 4.91 24.10 L 7.44 21.62 L 10.57 19.06 L 14.03 16.80 L 17.94 14.99 L 20.69 14.14 L 23.60 13.69 L 26.70 13.63 L 29.76 14.04 L 33.02 15.04 L 36.54 16.71 L 39.79 18.85 L 43.31 21.87 L 47.13 25.96 L 50.54 30.37 L 54.21 36.01 L 58.16 43.11 L 61.67 50.39 L 65.38 59.25 L 69.31 69.89 L 69.90 71.43 L 70.61 72.89 L 71.74 74.67 L 73.17 76.29 L 74.97 77.58 L 76.32 78.12 L 77.87 78.32 L 79.69 78.12 L 81.43 77.52 L 83.52 76.29 L 86.05 74.23 L 88.31 71.89 L 90.99 68.53 L 94.15 63.89 L 96.49 60.51 L 99.05 57.46 L 101.83 54.72 L 104.87 52.29 L 108.05 50.31 L 111.38 48.78 L 114.88 47.72 L 118.48 47.23 L 122.24 47.30 L 125.00 47.74 L 127.84 48.57 L 130.78 49.81 L 133.85 51.52 L 136.63 53.46 L 139.51 55.92 L 142.51 58.96 L 145.63 62.66 L 149.79 67.57 L 153.79 71.64 L 157.66 74.96 L 161.79 77.98 L 165.62 80.38 L 169.19 82.23 L 174.58 84.47 L 178.97 85.79 L 183.06 86.63 L 185.76 86.96 L 188.30 87.06 L 0.00 87.06 Z" fill="url(#未命名的渐变_87-2)" fill-rule="nonzero" group-id="2" node-id="42" stroke="none" target-height="73.43294" target-width="188.29999" target-x="0" target-y="13.62706"></path></g><path d="M 188.30 49.55 L 186.60 48.18 L 184.74 46.85 L 181.90 45.11 L 178.71 43.49 L 174.78 41.95 L 172.01 41.15 L 169.03 40.59 L 165.80 40.28 L 162.57 40.32 L 159.17 40.78 L 155.56 41.70 L 152.10 43.05 L 148.47 45.06 L 144.63 47.79 L 140.01 51.08 L 135.49 53.62 L 131.03 55.47 L 126.39 56.87 L 122.00 57.78 L 117.83 58.24 L 111.68 58.35 L 106.53 57.93 L 101.82 57.16 L 98.65 56.40 L 95.69 55.48 L 92.61 54.21 L 89.29 53.08 L 84.32 51.73 L 78.85 50.68 L 72.25 50.00 L 67.73 49.92 L 62.94 50.25 L 57.85 51.01 L 52.87 52.24 L 47.78 54.13 L 42.54 56.71 L 33.11 61.74 L 25.14 65.45 L 17.57 68.50 L 11.71 70.52 L 6.40 72.07 L 3.05 72.87 L -0.02 73.44 L -0.02 87.03 L 188.28 87.03 Z" fill="url(#未命名的渐变_87-3)" fill-rule="nonzero" group-id="3" node-id="47" stroke="none" target-height="46.748154" target-width="188.31998" target-x="-0.019996643" target-y="40.281845"></path></svg>