<?xml version="1.0" standalone="no"?><!DOCTYPE svg PUBLIC "-//W3C//DTD SVG 1.1//EN" "http://www.w3.org/Graphics/SVG/1.1/DTD/svg11.dtd"><svg height="500" node-id="1" sillyvg="true" template-height="500" template-width="500" version="1.1" viewBox="0 0 500 500" width="500" xmlns="http://www.w3.org/2000/svg" xmlns:xlink="http://www.w3.org/1999/xlink"><defs node-id="19"></defs><path d="M 248.75 355.18 C 248.61 354.85 234.91 321.91 229.14 277.60 C 223.81 236.67 224.34 177.37 257.13 127.32 L 258.51 128.22 C 225.99 177.85 225.48 236.74 230.77 277.39 C 236.51 321.48 250.12 354.21 250.26 354.54 L 248.75 355.18 Z" fill="#5a6c1c" fill-rule="nonzero" node-id="22" stroke="none" target-height="227.86298" target-width="34.702988" target-x="223.808" target-y="127.316"></path><path d="M 261.98 354.86 C 259.80 343.84 258.02 332.74 256.39 321.62 C 254.77 310.50 253.42 299.35 252.23 288.17 C 251.20 276.98 250.20 265.77 249.76 254.54 C 249.32 243.30 249.18 232.04 249.92 220.83 L 249.96 229.25 C 249.96 232.06 250.13 234.86 250.20 237.66 C 250.25 240.47 250.38 243.27 250.54 246.07 C 250.70 248.87 250.79 251.67 251.02 254.47 C 251.73 265.66 252.71 276.84 253.87 288.00 C 254.91 299.17 256.29 310.31 257.64 321.45 C 258.30 327.03 259.02 332.59 259.76 338.16 L 261.98 354.86 Z" fill="#5a6c1c" fill-rule="nonzero" node-id="24" stroke="none" target-height="134.031" target-width="12.800995" target-x="249.18" target-y="220.828"></path><path d="M 249.30 185.99 C 249.24 185.99 249.19 185.98 249.13 185.97 C 248.68 185.87 248.40 185.44 248.50 184.99 C 248.56 184.71 254.31 156.19 229.53 121.17 C 229.27 120.79 229.36 120.28 229.73 120.02 C 230.10 119.75 230.61 119.84 230.88 120.22 C 256.10 155.87 250.17 185.05 250.10 185.34 C 250.02 185.72 249.68 185.99 249.30 185.99 Z" fill="#5a6c1c" fill-rule="nonzero" node-id="26" stroke="none" target-height="66.23401" target-width="26.828003" target-x="229.271" target-y="119.754"></path><path d="M 286.00 361.56 C 285.99 361.33 284.75 338.90 273.49 328.86 C 261.20 317.88 244.77 242.29 250.99 213.27 L 252.59 213.62 C 246.58 241.68 262.94 317.23 274.59 327.63 C 286.36 338.13 287.60 360.53 287.64 361.47 L 286.00 361.56 Z" fill="#5a6c1c" fill-rule="nonzero" node-id="28" stroke="none" target-height="148.28099" target-width="42.87799" target-x="244.767" target-y="213.274"></path><path d="M 161.33 274.17 C 161.33 274.17 182.12 269.60 200.01 229.67 C 200.01 229.67 211.24 223.01 222.47 251.92 C 222.47 251.92 227.15 250.88 225.59 241.31 C 224.03 231.75 263.65 233.93 271.44 246.72 C 271.44 246.72 227.15 278.85 191.28 283.22 C 191.28 283.22 155.71 281.97 161.33 274.17 Z" fill="#aabb41" fill-rule="nonzero" node-id="30" stroke="none" target-height="60.204987" target-width="115.729996" target-x="155.714" target-y="223.013"></path><path d="M 294.84 290.81 C 294.84 290.81 299.21 272.51 271.44 271.68 C 243.68 270.84 234.32 279.16 197.30 282.24 C 197.30 282.24 238.86 266.66 250.16 249.44 C 252.01 246.63 254.51 244.26 257.49 242.67 C 262.86 239.80 271.31 238.34 281.53 247.14 C 281.53 247.14 299.00 256.29 294.84 290.81 Z" fill="#6f8037" fill-rule="nonzero" node-id="32" stroke="none" target-height="52.46501" target-width="101.907" target-x="197.299" target-y="238.343"></path><path d="M 278.20 354.86 C 279.92 352.38 281.42 349.79 282.79 347.12 C 283.46 345.78 284.17 344.47 284.76 343.09 C 285.40 341.74 286.00 340.37 286.53 338.97 C 288.74 333.42 290.55 327.73 291.88 321.90 C 292.21 320.45 292.47 318.98 292.77 317.52 L 293.20 315.32 L 293.51 313.10 L 294.15 308.67 L 294.55 304.20 L 294.76 301.97 L 294.85 299.72 L 295.00 295.23 C 295.09 292.23 294.92 289.23 294.96 286.21 C 295.29 289.20 295.63 292.21 295.81 295.22 L 295.89 299.75 L 295.92 302.01 L 295.81 304.28 L 295.58 308.81 L 295.05 313.32 L 294.77 315.58 L 294.35 317.81 C 294.06 319.30 293.81 320.79 293.48 322.27 C 292.10 328.17 290.20 333.96 287.68 339.47 C 285.16 344.96 282.16 350.29 278.20 354.86 Z" fill="#5a6c1c" fill-rule="nonzero" node-id="34" stroke="none" target-height="68.64401" target-width="17.71399" target-x="278.202" target-y="286.215"></path><path d="M 318.55 186.20 C 318.55 186.20 333.83 197.24 353.48 191.80 C 373.13 186.36 372.10 203.57 364.14 205.44 C 356.19 207.31 353.61 206.67 344.60 206.01 C 328.70 204.85 318.55 186.20 318.55 186.20 Z" fill="#6f8037" fill-rule="nonzero" node-id="36" stroke="none" target-height="21.10701" target-width="54.58902" target-x="318.546" target-y="186.204"></path><path d="M 354.52 206.74 C 354.52 206.74 312.62 203.36 297.33 204.61 C 282.05 205.86 252.41 206.25 249.84 223.09 C 249.84 223.09 229.02 214.43 252.10 177.16 C 252.10 177.16 271.44 147.06 299.05 167.80 L 298.74 185.16 L 307.16 172.32 C 307.16 172.32 328.68 199.51 350.68 205.75 L 354.52 206.74 Z" fill="#aabb41" fill-rule="nonzero" node-id="38" stroke="none" target-height="76.035" target-width="125.50401" target-x="229.019" target-y="147.055"></path><path d="M 375.79 92.15 C 375.79 92.15 373.93 72.59 352.87 68.81 C 331.80 65.02 328.53 83.58 328.53 83.58 C 328.53 83.58 348.80 71.57 375.79 92.15 Z" fill="#6f8037" fill-rule="nonzero" node-id="40" stroke="none" target-height="27.139" target-width="47.258972" target-x="328.528" target-y="65.015"></path><path d="M 255.85 130.86 C 255.85 130.86 248.36 38.81 315.12 68.14 C 315.12 68.14 329.20 67.20 354.52 68.92 C 354.52 68.92 328.06 72.03 331.18 85.60 C 334.30 99.17 284.08 132.60 255.85 130.86 Z" fill="#aabb41" fill-rule="nonzero" node-id="42" stroke="none" target-height="93.791" target-width="106.16301" target-x="248.36" target-y="38.812"></path><path d="M 257.82 129.22 C 260.08 122.31 263.14 115.68 266.63 109.29 C 270.15 102.91 274.24 96.83 278.88 91.18 C 283.60 85.61 288.91 80.47 294.99 76.37 C 298.06 74.36 301.27 72.59 304.62 71.14 C 308.03 69.80 311.53 68.74 315.11 68.14 C 311.61 69.10 308.20 70.30 304.95 71.87 C 301.72 73.45 298.63 75.32 295.71 77.41 C 289.91 81.64 284.70 86.67 280.14 92.24 C 275.46 97.71 271.44 103.73 267.72 109.91 C 265.86 113.01 264.12 116.18 262.48 119.41 C 260.80 122.61 259.26 125.89 257.82 129.22 Z" fill="#5a6c1c" fill-rule="nonzero" node-id="44" stroke="none" target-height="61.088005" target-width="57.292023" target-x="257.822" target-y="68.135"></path><path d="M 128.19 190.54 C 128.19 190.54 105.49 152.51 118.90 119.14 C 118.90 119.14 127.11 131.24 134.19 130.93 C 134.19 130.93 129.51 121.63 130.13 115.39 C 130.13 115.39 148.23 110.72 165.38 112.59 L 128.19 190.54 Z" fill="#aabb41" fill-rule="nonzero" node-id="46" stroke="none" target-height="79.824005" target-width="59.892" target-x="105.491" target-y="110.715"></path><path d="M 129.09 195.56 C 129.09 195.56 113.91 137.12 176.72 94.29 L 182.54 114.46 L 188.99 96.65 C 188.99 96.65 217.14 91.50 230.79 121.94 C 230.79 121.94 167.98 106.35 129.09 195.56 Z" fill="#6f8037" fill-rule="nonzero" node-id="48" stroke="none" target-height="104.06" target-width="116.87399" target-x="113.914" target-y="91.502"></path><path d="M 217.48 350.28 L 318.55 350.28 L 287.35 443.87 L 248.67 443.87 Z" fill="#3f2700" fill-rule="nonzero" node-id="50" stroke="#232323" stroke-linecap="butt" stroke-width="1" target-height="93.582" target-width="101.06799" target-x="217.478" target-y="350.284"></path></svg>