<?xml version="1.0" standalone="no"?><!DOCTYPE svg PUBLIC "-//W3C//DTD SVG 1.1//EN" "http://www.w3.org/Graphics/SVG/1.1/DTD/svg11.dtd"><svg height="1024" node-id="1" sillyvg="true" template-height="1024" template-width="1024" version="1.1" viewBox="0 0 1024 1024" width="1024" xmlns="http://www.w3.org/2000/svg" xmlns:xlink="http://www.w3.org/1999/xlink"><defs node-id="23"><clipPath id="clip-植物" node-id="3"><path d="M 0.00 0.00 L 1024.00 0.00 L 1024.00 1024.00 L 0.00 1024.00 Z" fill="#000000" fill-rule="nonzero" node-id="26" stroke="none" target-height="1024" target-width="1024" target-x="0" target-y="0"></path></clipPath></defs><g clip-path="url(#clip-植物)" id="植物" node-id="5"><path d="M 0.00 0.00 L 1024.00 0.00 L 1024.00 1024.00 L 0.00 1024.00 Z" fill="#ffffff" fill-rule="nonzero" node-id="31" stroke="none" target-height="1024" target-width="1024" target-x="0" target-y="0"></path><path d="M 509.16 699.06 L 393.86 617.02 L 508.03 670.75 L 403.46 600.71 L 508.04 657.32 L 403.46 581.52 L 504.20 637.17 L 415.10 569.94 L 502.70 600.71 L 401.92 529.63 L 509.16 578.47 L 507.61 569.94 L 389.52 512.32 L 511.48 556.76 L 509.16 551.08 L 383.58 496.30 L 507.61 542.55 L 509.16 534.03 L 369.88 478.21 L 509.16 518.52 L 509.16 512.32 L 333.70 447.98 L 497.53 493.98 L 350.76 430.93 L 495.21 474.86 L 325.21 404.80 L 501.23 458.22 L 313.11 384.32 L 488.46 438.06 L 481.75 430.93 L 477.35 429.00 L 465.28 423.73 L 447.23 415.97 L 424.86 406.53 L 399.86 396.24 L 373.92 385.92 L 348.71 376.39 L 336.69 372.10 L 325.92 368.47 L 315.62 365.28 L 307.22 363.00 L 301.74 361.77 L 297.51 361.07 L 294.30 360.79 L 302.15 361.37 L 312.16 362.75 L 322.72 364.67 L 334.75 367.23 L 347.10 370.15 L 360.23 373.50 L 373.47 377.06 L 386.79 380.82 L 412.61 388.46 L 435.86 395.68 L 454.72 401.75 L 467.38 405.93 L 472.00 407.49 L 467.18 405.37 L 454.06 399.65 L 434.64 391.30 L 410.91 381.26 L 384.88 370.49 L 358.53 359.96 L 333.88 350.61 L 322.51 346.57 L 312.93 343.40 L 304.01 340.78 L 297.66 339.29 L 294.33 338.77 L 293.79 338.82 L 293.96 339.01 L 295.57 339.71 L 300.70 341.47 L 315.76 346.08 L 336.99 352.28 L 362.29 359.50 L 389.53 367.17 L 416.58 374.72 L 441.31 381.59 L 461.61 387.20 L 475.35 390.98 L 480.40 392.37 L 302.70 330.22 L 472.00 373.89 L 306.73 327.20 L 481.75 362.47 L 480.40 357.77 L 288.59 319.47 L 462.26 339.29 L 457.60 338.21 L 444.81 335.30 L 425.63 331.02 L 401.85 325.85 L 375.22 320.27 L 347.50 314.75 L 320.46 309.78 L 307.54 307.61 L 295.87 305.82 L 284.72 304.33 L 275.49 303.35 L 276.12 303.20 L 280.48 303.24 L 293.86 304.00 L 313.51 305.43 L 337.36 307.32 L 363.29 309.48 L 389.21 311.69 L 413.03 313.76 L 432.64 315.49 L 445.94 316.68 L 450.84 317.12 L 445.84 316.04 L 432.23 313.09 L 412.12 308.73 L 387.60 303.41 L 360.77 297.59 L 333.73 291.72 L 308.58 286.26 L 287.40 281.65 L 272.32 278.34 L 265.41 276.81 L 265.31 276.74 L 269.02 277.19 L 282.48 279.10 L 303.37 282.16 L 329.29 286.01 L 357.83 290.29 L 386.58 294.61 L 413.14 298.61 L 435.09 301.93 L 450.03 304.19 L 455.54 305.02 L 450.84 297.63 L 445.82 296.45 L 432.17 293.23 L 412.00 288.48 L 387.41 282.71 L 360.52 276.43 L 333.44 270.14 L 308.28 264.34 L 287.15 259.54 L 272.16 256.25 L 265.41 254.97 L 265.34 255.02 L 268.90 255.74 L 281.69 257.99 L 301.49 261.36 L 326.04 265.47 L 353.05 269.96 L 380.25 274.47 L 405.37 278.61 L 426.13 282.03 L 440.25 284.35 L 445.47 285.21 L 438.41 276.81 L 271.12 246.57 L 417.92 263.03 L 409.98 260.87 L 401.16 258.68 L 386.89 255.45 L 370.81 252.17 L 349.74 248.36 L 326.97 244.80 L 299.61 241.20 L 280.79 239.12 L 260.16 237.24 L 237.59 235.56 L 255.73 235.45 L 276.88 235.77 L 299.36 236.42 L 321.50 237.24 L 341.64 238.12 L 358.08 238.91 L 369.18 239.48 L 373.25 239.70 L 217.43 223.17 L 351.28 226.78 L 210.45 217.48 L 342.75 209.47 L 207.09 211.80 L 297.66 196.81 L 207.09 206.89 L 321.83 179.26 L 315.86 176.28 L 187.66 204.70 L 295.59 167.73 L 278.41 162.05 L 273.33 160.38 L 272.89 161.59 L 272.13 162.86 L 270.33 165.00 L 267.91 167.23 L 263.75 170.29 L 258.74 173.34 L 251.27 177.14 L 242.72 180.85 L 230.99 185.22 L 220.57 188.64 L 211.37 191.39 L 203.30 193.53 L 191.58 196.20 L 182.69 197.84 L 174.74 198.98 L 169.83 199.48 L 165.39 199.73 L 168.33 198.35 L 176.10 194.80 L 187.16 189.94 L 199.94 184.65 L 206.54 182.10 L 212.88 179.81 L 219.08 177.77 L 224.43 176.28 L 234.62 173.52 L 243.75 170.70 L 252.38 167.71 L 259.44 165.03 L 265.83 162.36 L 270.15 160.38 L 271.26 159.65 L 271.58 159.14 L 271.45 158.71 L 270.65 158.11 L 268.75 157.46 L 263.71 156.57 L 258.03 156.00 L 253.38 155.70 L 251.46 155.60 L 249.24 157.66 L 246.65 159.75 L 242.32 162.81 L 237.26 165.91 L 230.33 169.53 L 225.40 171.75 L 219.62 174.00 L 212.90 176.28 L 204.57 178.64 L 195.69 180.80 L 186.72 182.72 L 178.10 184.36 L 162.54 186.91 L 151.44 188.46 L 147.20 188.98 L 150.52 187.65 L 159.11 184.21 L 170.96 179.52 L 184.01 174.44 L 196.24 169.82 L 205.61 166.51 L 215.70 163.55 L 227.17 160.62 L 237.93 158.08 L 245.91 156.29 L 249.03 155.61 L 229.11 151.22 L 226.59 153.12 L 223.76 155.03 L 219.23 157.74 L 214.07 160.43 L 207.35 163.41 L 202.61 165.20 L 197.26 166.90 L 191.24 168.50 L 183.90 170.09 L 176.49 171.48 L 162.29 173.68 L 150.20 175.17 L 141.79 176.01 L 138.64 176.28 L 141.67 175.03 L 149.62 171.85 L 160.77 167.60 L 173.38 163.14 L 179.78 161.07 L 185.73 159.32 L 199.87 155.70 L 212.05 152.96 L 220.59 151.22 L 223.80 150.61 L 221.51 150.23 L 209.74 148.31 L 207.46 149.15 L 201.52 151.28 L 193.28 154.12 L 184.08 157.10 L 175.26 159.65 L 171.26 160.61 L 168.18 161.17 L 160.54 162.05 L 150.32 162.99 L 139.31 163.88 L 129.25 164.63 L 121.92 165.15 L 119.08 165.35 L 121.80 164.42 L 128.86 162.08 L 138.58 158.95 L 149.32 155.67 L 159.41 152.88 L 163.89 151.83 L 167.18 151.22 L 175.64 150.11 L 185.29 148.99 L 194.37 148.01 L 201.11 147.32 L 203.75 147.06 L 199.96 147.14 L 189.93 147.28 L 175.71 147.35 L 159.33 147.24 L 142.84 146.80 L 135.01 146.41 L 128.28 145.91 L 115.75 144.49 L 105.87 142.93 L 97.01 141.18 L 91.34 139.84 L 86.16 138.41 L 89.36 138.11 L 97.74 137.39 L 109.52 136.51 L 122.89 135.73 L 136.05 135.33 L 142.17 135.36 L 147.19 135.57 L 153.12 136.16 L 159.86 137.14 L 166.70 138.37 L 173.52 139.76 L 185.98 142.64 L 195.07 144.95 L 198.58 145.90 L 195.00 144.73 L 185.60 141.58 L 172.42 137.01 L 157.50 131.58 L 142.87 125.84 L 136.11 122.95 L 130.56 120.35 L 125.63 117.70 L 122.61 115.67 L 121.12 114.20 L 120.81 113.45 L 121.07 113.03 L 121.75 112.77 L 123.08 112.67 L 125.42 112.87 L 129.01 113.48 L 133.81 114.54 L 144.42 117.39 L 155.41 120.77 L 164.94 124.03 L 171.19 126.52 L 178.46 129.80 L 189.46 134.62 L 201.94 140.02 L 213.64 145.06 L 222.32 148.77 L 225.71 150.23 L 222.33 148.89 L 213.56 145.24 L 201.43 139.78 L 194.80 136.55 L 188.01 133.02 L 181.37 129.28 L 175.32 125.49 L 158.67 114.65 L 148.05 108.07 L 144.31 105.85 L 147.95 106.31 L 157.25 107.72 L 169.82 110.09 L 176.59 111.63 L 183.28 113.42 L 189.73 115.50 L 195.22 117.73 L 200.50 120.45 L 206.35 123.96 L 212.19 127.84 L 218.00 131.99 L 228.67 140.24 L 236.91 147.12 L 241.22 151.07 L 242.63 152.10 L 244.67 152.96 L 246.91 153.55 L 249.23 153.96 L 253.22 154.36 L 254.92 154.43 L 252.52 152.71 L 246.25 148.10 L 237.47 141.41 L 227.58 133.45 L 222.61 129.21 L 217.95 125.03 L 213.56 120.80 L 209.96 116.96 L 205.19 111.05 L 201.14 105.20 L 197.59 99.31 L 194.85 94.19 L 191.06 86.03 L 189.80 82.85 L 192.53 84.52 L 199.50 88.91 L 208.93 95.06 L 219.02 102.03 L 223.85 105.60 L 227.96 108.87 L 231.63 112.12 L 233.98 114.64 L 236.44 117.88 L 239.47 122.20 L 245.79 131.84 L 251.88 141.69 L 256.73 149.85 L 259.30 154.43 L 260.17 155.40 L 261.99 156.44 L 264.16 157.29 L 266.81 158.09 L 272.21 159.32 L 276.60 160.10 L 278.41 160.38 L 214.31 71.52 L 304.95 169.72 L 317.27 174.69 L 242.14 67.55 L 341.13 186.41 L 264.00 50.65 L 363.38 198.34 L 361.22 194.08 L 355.37 182.52 L 346.77 165.51 L 336.35 144.88 L 325.04 122.48 L 313.79 100.15 L 303.53 79.72 L 295.19 63.03 L 289.72 51.94 L 288.07 48.41 L 288.04 48.27 L 291.20 53.42 L 298.82 66.29 L 309.79 84.91 L 322.96 107.35 L 337.22 131.68 L 351.42 155.93 L 364.43 178.18 L 375.13 196.48 L 382.38 208.88 L 385.04 213.45 L 389.28 218.77 L 333.73 61.92 L 406.08 228.85 L 405.16 223.98 L 402.59 210.79 L 398.65 191.42 L 393.63 167.99 L 387.81 142.65 L 384.66 129.86 L 381.46 117.53 L 378.13 105.51 L 374.89 94.75 L 371.48 84.59 L 368.35 76.45 L 366.04 71.30 L 363.98 67.49 L 362.15 64.76 L 367.03 71.33 L 371.81 78.76 L 376.46 87.13 L 380.69 95.72 L 384.75 104.88 L 388.64 114.64 L 393.94 129.52 L 398.78 144.87 L 403.14 160.33 L 406.98 175.39 L 410.44 190.23 L 413.35 203.80 L 417.97 227.67 L 420.94 244.57 L 422.36 252.10 L 423.27 254.44 L 423.77 255.26 L 424.24 255.58 L 424.48 255.44 L 424.69 254.98 L 424.30 249.96 L 423.18 236.33 L 421.41 216.27 L 419.07 191.91 L 416.23 165.42 L 412.97 138.96 L 411.18 126.22 L 409.37 114.68 L 407.40 103.71 L 405.49 94.74 L 403.35 86.64 L 401.43 81.30 L 402.91 82.45 L 404.60 84.68 L 406.54 88.43 L 408.94 94.67 L 411.57 103.40 L 413.95 112.90 L 416.40 124.19 L 418.67 135.99 L 420.92 148.85 L 423.02 161.94 L 425.01 175.36 L 428.56 201.75 L 431.44 226.03 L 433.56 246.21 L 434.79 260.30 L 435.06 265.06 L 435.02 266.32 L 434.93 267.92 L 435.31 269.34 L 436.04 270.63 L 436.96 271.71 L 438.80 273.26 L 439.67 273.81 L 439.69 268.80 L 439.68 255.22 L 439.56 235.23 L 439.25 211.00 L 438.66 184.69 L 437.72 158.47 L 437.08 145.86 L 436.34 134.50 L 435.42 123.70 L 434.43 114.94 L 433.17 107.04 L 431.92 101.97 L 433.93 105.98 L 435.94 111.13 L 437.93 117.63 L 440.36 127.79 L 442.62 140.00 L 444.50 152.79 L 446.17 166.80 L 447.56 181.09 L 448.73 195.75 L 449.69 210.40 L 450.46 224.55 L 451.52 250.93 L 452.08 272.60 L 452.30 287.27 L 452.33 292.67 L 455.54 297.64 L 455.85 293.23 L 456.66 281.27 L 457.80 263.62 L 459.11 242.16 L 460.42 218.75 L 461.55 195.27 L 462.35 173.59 L 462.64 155.58 L 462.53 148.14 L 462.26 143.11 L 463.10 144.01 L 464.04 146.02 L 465.05 149.80 L 466.07 155.88 L 467.00 164.49 L 467.69 173.83 L 468.26 184.84 L 468.95 208.50 L 469.21 233.12 L 469.17 256.35 L 468.98 275.86 L 468.76 289.28 L 468.66 294.28 L 469.88 289.85 L 473.07 277.97 L 477.59 260.73 L 482.77 240.23 L 487.95 218.59 L 492.47 197.89 L 494.32 188.29 L 495.67 180.23 L 496.60 172.81 L 496.88 167.73 L 497.22 168.22 L 497.55 169.67 L 497.77 172.92 L 497.75 177.99 L 497.41 185.46 L 495.99 203.43 L 493.69 224.90 L 490.67 247.94 L 488.94 259.52 L 487.12 270.61 L 485.17 281.40 L 483.22 290.98 L 481.11 300.01 L 479.13 307.13 L 477.61 311.65 L 476.25 314.89 L 475.04 317.12 L 475.36 316.96 L 477.13 313.82 L 481.99 303.21 L 488.72 287.23 L 496.38 267.82 L 504.03 246.94 L 507.61 236.43 L 510.76 226.52 L 513.55 216.85 L 515.63 208.50 L 516.74 203.01 L 517.41 198.50 L 517.71 194.84 L 517.86 199.68 L 517.64 205.33 L 516.97 211.90 L 515.43 221.86 L 513.15 233.05 L 510.42 244.44 L 507.23 256.32 L 503.78 268.17 L 500.19 279.75 L 493.00 301.39 L 486.65 319.27 L 482.13 331.44 L 480.40 335.93 L 532.15 211.98 L 485.79 360.79 L 485.79 367.17 L 488.18 362.92 L 494.52 351.51 L 503.56 334.93 L 514.05 315.19 L 524.75 294.28 L 529.85 283.88 L 534.40 274.21 L 538.56 264.84 L 541.77 256.97 L 544.33 249.62 L 545.59 244.56 L 545.61 245.68 L 545.26 247.89 L 544.25 251.80 L 542.39 257.80 L 539.53 266.07 L 532.38 285.26 L 523.73 307.27 L 514.53 330.00 L 505.73 351.34 L 498.27 369.18 L 493.10 381.43 L 491.17 385.99 L 492.85 388.00 L 557.01 267.74 L 498.90 407.49 L 501.23 412.86 L 568.43 290.25 L 504.28 438.05 L 505.96 443.09 L 577.85 324.17 L 509.99 462.91 L 511.49 467.28 L 586.58 354.41 L 513.01 487.43 L 513.01 493.97 L 591.95 379.94 L 515.03 518.52 L 515.03 526.74 L 599.34 410.51 L 515.02 549.58 L 515.02 556.76 L 613.79 428.65 L 515.02 583.17 L 515.02 587.87 L 625.88 487.43 L 525.44 604.33 L 648.72 566.03 L 513.01 635.57 L 619.83 617.02 L 511.49 670.75 Z" fill="#b2d998" fill-rule="nonzero" group-id="1,2" id="路径_20" node-id="9" stroke="none" target-height="650.798" target-width="562.562" target-x="86.16016" target-y="48.266968"></path><path d="M 201.98 146.90 L 206.46 147.71 L 218.35 149.94 L 235.30 153.32 L 254.99 157.55 L 265.17 159.91 L 275.07 162.35 L 284.72 164.93 L 293.23 167.43 L 301.15 170.11 L 307.10 172.51 L 313.85 175.69 L 322.44 180.02 L 331.47 184.86 L 341.76 190.76 L 352.24 197.17 L 363.41 204.52 L 374.51 212.42 L 385.72 221.11 L 393.02 227.22 L 400.12 233.62 L 407.04 240.32 L 413.67 247.28 L 419.89 254.48 L 425.71 261.92 L 435.41 275.38 L 443.69 287.55 L 451.30 299.57 L 457.84 310.85 L 463.75 322.17 L 468.94 333.33 L 473.58 344.69 L 477.78 356.48 L 481.55 368.63 L 485.14 381.82 L 490.92 404.16 L 493.74 415.49 L 496.51 427.54 L 499.04 439.97 L 501.44 453.83 L 503.48 468.30 L 505.27 484.89 L 506.59 502.34 L 507.52 522.61 L 507.92 543.96 L 507.75 568.86 L 506.77 626.76 L 506.06 676.12 L 505.60 714.46 L 505.34 739.28 L 505.26 748.11 L 513.43 753.36 L 513.55 748.72 L 513.89 736.21 L 514.35 717.97 L 514.89 696.15 L 515.43 672.88 L 515.90 650.29 L 516.23 630.54 L 516.36 615.75 L 516.48 596.54 L 516.63 571.40 L 516.48 542.71 L 516.19 527.78 L 515.71 512.86 L 514.97 498.09 L 513.98 484.23 L 512.62 470.83 L 510.98 459.22 L 508.90 447.67 L 506.23 434.51 L 503.18 420.98 L 499.64 406.57 L 495.76 392.06 L 491.49 377.45 L 486.88 362.99 L 482.03 349.17 L 478.56 340.10 L 475.06 331.65 L 471.54 323.80 L 467.71 316.05 L 463.95 309.27 L 460.25 303.35 L 451.52 290.34 L 442.40 277.09 L 436.11 268.35 L 429.45 259.60 L 422.39 250.84 L 415.03 242.35 L 407.06 233.93 L 398.47 225.57 L 391.81 219.62 L 384.67 213.75 L 377.02 207.95 L 368.86 202.24 L 357.23 194.76 L 345.33 187.83 L 333.16 181.44 L 320.69 175.58 L 307.99 170.28 L 295.08 165.55 L 281.95 161.39 L 268.60 157.79 L 263.49 156.59 L 257.02 155.28 L 242.83 152.78 L 228.12 150.50 L 215.00 148.63 L 205.59 147.36 L 201.98 146.90 Z" fill="#7aa355" fill-rule="nonzero" group-id="1,2" id="路径_19" node-id="10" stroke="none" target-height="606.462" target-width="314.64844" target-x="201.979" target-y="146.89899"></path><path d="M 473.70 730.74 L 472.81 718.23 L 471.34 705.81 L 469.29 693.46 L 466.66 681.22 L 463.46 669.13 L 459.69 657.16 L 456.25 655.22 L 451.26 652.88 L 445.77 650.64 L 439.26 648.24 L 432.47 645.95 L 425.23 643.69 L 417.90 641.57 L 410.72 639.66 L 403.64 637.96 L 397.27 636.61 L 394.08 635.77 L 390.35 634.41 L 386.00 632.44 L 379.57 629.01 L 372.43 624.70 L 365.29 620.00 L 358.04 614.93 L 350.92 609.72 L 344.28 604.67 L 332.64 595.44 L 324.58 588.78 L 321.56 586.22 L 332.76 592.44 L 344.20 598.12 L 355.88 603.29 L 367.81 607.93 L 374.73 610.07 L 381.84 611.76 L 396.25 614.57 L 403.43 616.11 L 410.45 618.01 L 417.16 620.36 L 423.61 623.15 L 429.82 626.38 L 435.81 630.06 L 441.52 634.16 L 446.91 638.63 L 451.98 643.50 L 456.75 648.77 L 451.52 635.37 L 446.20 623.18 L 440.63 611.51 L 435.35 601.21 L 425.46 583.24 L 415.23 580.73 L 404.93 578.63 L 394.55 576.93 L 384.10 575.63 L 377.22 575.14 L 370.48 575.09 L 363.77 575.41 L 357.08 576.00 L 343.63 577.63 L 334.56 578.76 L 325.18 579.68 L 318.88 580.08 L 312.34 580.19 L 305.55 580.02 L 298.24 579.32 L 290.66 578.03 L 283.11 576.29 L 275.73 574.24 L 268.55 571.94 L 262.01 569.62 L 250.69 565.13 L 243.00 561.73 L 240.17 560.38 L 243.42 560.61 L 251.98 561.20 L 264.04 562.00 L 277.80 562.83 L 291.46 563.55 L 303.22 564.00 L 317.12 563.94 L 333.87 563.45 L 347.94 563.03 L 361.45 562.84 L 373.34 563.09 L 378.55 563.47 L 382.55 564.00 L 387.35 565.00 L 392.52 566.35 L 402.75 569.60 L 411.94 573.00 L 418.78 575.76 L 421.99 577.14 L 419.25 572.27 L 414.38 564.09 L 407.94 554.42 L 400.76 544.61 L 392.35 534.04 L 385.35 534.05 L 374.56 534.33 L 361.92 535.13 L 355.45 535.80 L 349.34 536.68 L 343.50 537.85 L 338.72 539.23 L 326.75 543.08 L 312.50 547.11 L 297.69 550.78 L 290.48 552.35 L 284.06 553.57 L 277.97 554.49 L 273.32 554.93 L 264.43 555.12 L 251.49 555.04 L 236.49 554.79 L 221.38 554.46 L 208.16 554.11 L 198.77 553.85 L 195.21 553.74 L 199.05 553.35 L 208.96 552.29 L 222.54 550.71 L 237.38 548.76 L 251.07 546.61 L 257.01 545.44 L 261.20 544.40 L 271.47 541.06 L 283.43 536.79 L 295.99 532.32 L 308.09 528.38 L 313.78 526.80 L 318.65 525.71 L 322.31 525.23 L 327.51 524.93 L 333.11 524.86 L 339.63 524.96 L 353.33 525.54 L 366.97 526.43 L 378.86 527.39 L 387.36 528.16 L 379.42 519.33 L 371.16 510.81 L 362.58 502.59 L 356.83 503.89 L 346.51 506.06 L 333.49 508.52 L 319.66 510.70 L 312.90 511.51 L 306.92 511.99 L 296.94 512.58 L 291.09 513.05 L 287.90 513.63 L 285.91 514.53 L 283.66 515.97 L 282.17 517.14 L 279.82 519.33 L 273.52 525.04 L 269.40 528.29 L 264.04 531.94 L 260.22 534.21 L 255.78 536.52 L 250.64 538.85 L 245.40 540.88 L 239.41 542.80 L 232.58 544.59 L 222.13 546.85 L 211.58 548.85 L 201.10 550.61 L 191.35 552.09 L 174.12 554.36 L 162.13 555.70 L 157.64 556.13 L 161.61 555.19 L 172.01 552.57 L 186.60 548.61 L 194.70 546.24 L 203.12 543.61 L 211.47 540.81 L 219.31 537.92 L 226.78 534.82 L 232.93 531.85 L 236.79 529.63 L 239.66 527.59 L 241.72 525.72 L 245.94 521.31 L 251.21 516.07 L 256.83 510.72 L 262.97 505.13 L 269.28 499.65 L 275.55 494.52 L 281.84 489.74 L 287.50 485.87 L 291.35 483.55 L 294.62 481.90 L 297.38 480.80 L 302.65 479.27 L 308.09 478.04 L 313.51 477.05 L 318.37 476.34 L 326.20 475.48 L 316.47 470.09 L 308.19 465.95 L 300.26 462.41 L 293.76 459.86 L 287.67 457.80 L 282.99 456.46 L 275.85 463.67 L 266.88 472.92 L 257.02 482.88 L 247.20 492.23 L 242.46 496.38 L 238.36 499.66 L 227.24 508.10 L 221.30 512.22 L 214.74 516.13 L 210.16 518.41 L 205.12 520.45 L 199.59 522.23 L 193.95 523.55 L 187.62 524.46 L 180.53 524.91 L 159.76 525.43 L 141.10 525.89 L 125.72 526.06 L 119.32 525.94 L 114.78 525.67 L 116.09 524.55 L 118.30 523.15 L 121.74 521.42 L 127.25 519.11 L 134.43 516.52 L 142.10 514.07 L 150.65 511.61 L 159.39 509.35 L 168.20 507.33 L 176.92 505.60 L 184.87 504.31 L 189.16 503.46 L 193.78 502.13 L 198.74 500.25 L 206.04 496.88 L 213.52 492.81 L 220.82 488.34 L 227.70 483.71 L 234.24 478.95 L 239.77 474.64 L 244.77 470.46 L 248.21 467.33 L 250.91 464.51 L 251.54 463.49 L 251.37 463.02 L 250.60 462.54 L 248.67 462.05 L 245.49 461.72 L 240.79 461.67 L 235.72 461.95 L 229.86 462.65 L 223.91 463.74 L 217.89 465.30 L 213.94 466.63 L 210.26 468.18 L 206.84 469.94 L 202.93 472.53 L 199.37 475.40 L 192.24 481.80 L 188.32 485.09 L 183.55 488.55 L 180.16 490.67 L 176.13 492.84 L 171.39 495.04 L 166.54 496.94 L 160.74 498.82 L 153.86 500.66 L 146.92 502.17 L 138.70 503.56 L 129.05 504.82 L 100.04 507.79 L 81.29 509.25 L 70.62 509.70 L 65.82 509.61 L 64.71 509.48 L 68.39 508.76 L 72.33 507.82 L 78.29 506.13 L 84.76 503.95 L 92.68 500.82 L 98.01 498.42 L 103.72 495.53 L 109.83 492.11 L 115.75 488.41 L 121.81 484.13 L 128.02 479.24 L 134.23 474.36 L 140.50 469.96 L 146.83 466.02 L 153.36 462.39 L 159.76 459.20 L 166.05 456.41 L 175.53 452.77 L 184.28 449.96 L 192.82 447.71 L 200.15 446.18 L 207.06 445.12 L 212.26 444.62 L 224.55 444.00 L 232.00 443.84 L 240.33 443.91 L 248.79 444.30 L 257.25 445.10 L 262.85 445.93 L 268.08 447.02 L 272.96 448.36 L 277.69 450.09 L 281.72 452.12 L 285.13 454.44 L 284.23 455.27 L 289.33 456.37 L 296.11 458.32 L 303.36 460.89 L 312.44 464.72 L 321.97 469.34 L 333.46 475.63 L 343.92 482.06 L 353.27 488.46 L 361.60 494.83 L 369.61 501.62 L 376.86 508.36 L 383.40 515.04 L 389.68 521.99 L 395.51 528.86 L 400.91 535.65 L 408.73 545.97 L 416.14 556.03 L 413.34 545.65 L 410.02 535.44 L 400.77 526.47 L 393.08 519.21 L 387.84 514.35 L 385.90 512.58 L 395.37 516.88 L 404.59 521.69 L 400.53 513.13 L 395.74 504.45 L 392.18 498.82 L 388.30 493.44 L 384.09 488.28 L 380.39 484.46 L 376.17 480.73 L 371.41 477.11 L 366.43 473.76 L 361.17 470.57 L 355.62 467.53 L 347.11 463.34 L 338.56 459.59 L 330.02 456.20 L 322.09 453.33 L 308.04 448.81 L 298.26 446.06 L 294.59 445.13 L 297.66 445.52 L 305.70 446.69 L 317.03 448.65 L 323.33 449.92 L 329.92 451.41 L 336.47 453.10 L 342.68 454.97 L 348.62 457.11 L 353.60 459.34 L 366.96 465.91 L 374.61 469.71 L 382.77 473.96 L 390.84 478.48 L 398.55 483.25 L 403.52 486.67 L 407.95 490.10 L 411.88 493.54 L 415.48 497.29 L 418.25 500.96 L 420.27 504.56 L 421.70 508.36 L 422.94 513.00 L 423.88 517.92 L 424.62 523.37 L 425.15 528.95 L 425.51 534.71 L 431.05 538.78 L 436.57 543.20 L 442.08 547.99 L 447.33 553.05 L 452.25 558.41 L 456.85 564.09 L 460.02 568.55 L 462.86 573.17 L 465.37 577.93 L 467.56 582.86 L 469.82 589.34 L 471.62 595.91 L 472.95 602.58 L 473.89 609.33 L 474.48 615.91 L 474.73 622.35 L 474.58 631.87 L 473.94 640.40 L 472.89 648.50 L 471.67 654.97 L 470.21 660.76 L 468.97 664.30 L 471.71 671.86 L 473.70 677.77 L 476.33 687.14 L 478.47 696.62 L 481.44 692.30 L 484.65 686.56 L 487.61 680.30 L 490.53 673.13 L 493.16 665.65 L 495.50 657.79 L 497.46 649.82 L 498.94 641.99 L 499.90 634.25 L 500.22 627.18 L 499.93 623.00 L 499.16 618.94 L 497.90 614.95 L 496.26 611.08 L 494.34 607.36 L 492.12 603.79 L 488.43 598.72 L 484.60 594.21 L 480.62 590.08 L 477.08 586.74 L 471.29 581.88 L 468.98 580.15 L 471.39 580.80 L 473.92 581.62 L 477.62 583.05 L 481.54 584.85 L 486.11 587.37 L 490.65 590.37 L 495.33 594.19 L 498.26 597.04 L 501.07 600.29 L 503.74 603.97 L 506.06 607.87 L 508.09 612.26 L 509.80 617.17 L 511.01 622.22 L 511.75 627.88 L 511.98 634.23 L 511.54 642.01 L 510.59 649.43 L 509.14 656.54 L 507.24 663.55 L 505.08 670.10 L 502.66 676.23 L 498.58 685.04 L 494.51 692.53 L 490.28 699.41 L 486.68 704.66 L 483.28 709.22 L 481.16 711.84 L 483.19 727.06 L 484.29 737.94 L 484.62 742.10 L 484.27 744.66 L 483.33 750.78 L 481.94 758.08 L 481.10 761.58 L 480.27 764.20 L 479.54 765.80 L 478.95 766.54 L 478.45 766.77 L 477.99 766.60 L 477.41 765.74 L 476.66 763.52 L 475.90 759.59 L 475.03 752.27 L 474.36 743.63 L 473.70 730.74 Z M 466.65 658.19 L 466.68 651.69 L 466.31 644.89 L 465.51 637.79 L 463.73 627.21 L 461.35 616.73 L 458.51 606.47 L 455.48 597.11 L 452.21 588.24 L 449.21 581.05 L 447.29 577.47 L 444.17 572.84 L 440.50 568.07 L 435.97 562.66 L 431.11 557.19 L 425.78 551.45 L 425.50 562.22 L 425.11 569.72 L 430.54 579.26 L 436.30 590.16 L 441.92 601.45 L 447.50 613.26 L 452.89 625.16 L 457.90 636.71 L 462.61 648.05 L 466.65 658.19 Z M 355.15 496.04 L 347.20 489.58 L 338.94 483.55 L 330.36 477.95 L 328.42 476.79 L 324.59 481.59 L 322.00 484.54 L 319.01 487.65 L 315.83 490.55 L 312.68 492.92 L 311.50 493.83 L 311.22 494.26 L 311.33 494.50 L 312.08 494.71 L 314.30 494.70 L 320.76 494.22 L 326.29 493.87 L 333.20 493.70 L 340.58 493.91 L 347.89 494.69 L 355.15 496.04 Z" fill="#10726f" fill-rule="nonzero" group-id="1,3" id="联合_1" node-id="11" stroke="none" target-height="322.92538" target-width="447.263" target-x="64.71289" target-y="443.84256"></path><path d="M 714.38 665.80 L 712.59 663.38 L 710.19 659.27 L 707.86 654.63 L 705.38 649.08 L 703.10 643.29 L 701.09 637.41 L 699.46 631.55 L 698.45 626.43 L 697.94 621.99 L 697.54 616.43 L 697.15 604.59 L 697.09 593.24 L 697.19 584.72 L 697.26 581.36 L 698.33 583.65 L 701.08 589.68 L 704.81 598.14 L 708.84 607.76 L 712.47 617.25 L 713.97 621.68 L 715.02 625.31 L 715.88 629.24 L 716.65 634.08 L 717.24 639.11 L 717.67 644.37 L 717.94 649.62 L 718.01 654.41 L 717.88 658.96 L 717.57 662.40 L 724.01 655.31 L 731.14 647.12 L 745.75 629.56 L 743.95 627.02 L 741.57 622.88 L 739.26 618.25 L 736.83 612.75 L 734.59 607.03 L 732.62 601.24 L 731.02 595.47 L 730.02 590.43 L 729.51 585.99 L 729.12 580.43 L 728.73 568.59 L 728.67 557.24 L 728.77 548.72 L 728.84 545.36 L 729.91 547.65 L 732.65 553.68 L 736.39 562.14 L 740.41 571.76 L 744.05 581.25 L 745.55 585.68 L 746.60 589.31 L 747.42 593.05 L 748.16 597.63 L 748.74 602.40 L 749.18 607.42 L 749.47 612.44 L 749.58 617.12 L 749.52 621.61 L 749.29 625.18 L 763.66 607.03 L 776.45 590.40 L 776.08 590.17 L 774.69 588.70 L 772.71 585.94 L 770.75 582.72 L 768.52 578.63 L 766.37 574.26 L 764.22 569.48 L 762.24 564.59 L 760.52 559.77 L 759.08 554.98 L 758.12 550.75 L 757.45 546.33 L 756.87 540.78 L 756.06 528.96 L 755.61 517.63 L 755.41 509.11 L 755.36 505.75 L 756.51 508.00 L 759.47 513.93 L 763.49 522.26 L 767.85 531.73 L 771.82 541.08 L 773.47 545.46 L 774.64 549.05 L 775.72 553.34 L 776.73 558.66 L 777.53 564.21 L 778.14 569.92 L 778.55 575.57 L 778.69 580.52 L 778.57 585.10 L 778.18 588.12 L 788.11 574.82 L 793.42 567.17 L 800.30 556.69 L 798.59 554.66 L 796.17 550.93 L 793.80 546.67 L 791.23 541.46 L 788.84 536.01 L 786.69 530.43 L 784.91 524.86 L 783.76 519.97 L 783.14 515.82 L 782.59 510.62 L 781.83 499.52 L 781.40 488.87 L 781.22 480.87 L 781.17 477.72 L 782.69 480.71 L 786.45 488.32 L 791.27 498.50 L 795.94 509.21 L 797.91 514.29 L 799.27 518.38 L 800.19 521.96 L 801.05 526.36 L 801.76 530.95 L 802.35 535.78 L 802.77 540.59 L 803.01 545.05 L 803.07 549.29 L 802.93 552.60 L 814.24 534.66 L 826.09 515.48 L 825.92 515.35 L 824.71 513.98 L 823.01 511.42 L 821.34 508.45 L 819.46 504.68 L 817.65 500.67 L 815.86 496.28 L 814.23 491.81 L 812.82 487.39 L 811.67 483.02 L 810.94 479.17 L 810.48 475.15 L 810.12 470.12 L 809.77 459.42 L 809.72 449.16 L 809.80 441.46 L 809.87 438.42 L 811.23 441.35 L 814.60 448.80 L 818.89 458.76 L 823.02 469.22 L 824.75 474.18 L 825.92 478.15 L 826.71 481.77 L 827.42 486.23 L 827.95 490.87 L 828.34 495.71 L 828.57 500.52 L 828.62 504.89 L 828.48 509.01 L 828.17 512.07 L 838.81 494.54 L 847.61 479.81 L 853.51 469.67 L 853.18 469.47 L 851.59 467.82 L 849.24 464.53 L 846.93 460.69 L 844.40 455.91 L 842.04 450.88 L 839.91 445.70 L 838.15 440.52 L 837.02 435.99 L 836.42 432.24 L 835.90 427.52 L 835.20 417.47 L 834.82 407.83 L 834.65 400.59 L 834.62 397.73 L 836.07 400.44 L 839.68 407.32 L 844.29 416.53 L 848.77 426.21 L 850.66 430.81 L 851.97 434.51 L 852.88 437.91 L 853.73 442.11 L 854.42 446.48 L 854.97 451.05 L 855.36 455.59 L 855.54 459.71 L 855.53 463.60 L 855.31 466.45 L 860.60 456.75 L 867.21 444.47 L 874.43 430.98 L 873.93 430.72 L 872.40 429.08 L 870.17 425.84 L 868.00 422.07 L 865.64 417.39 L 863.45 412.48 L 861.50 407.43 L 859.92 402.39 L 858.95 398.00 L 858.49 394.37 L 858.13 389.82 L 857.78 380.14 L 857.73 370.86 L 857.81 363.89 L 857.88 361.15 L 859.24 363.80 L 862.60 370.54 L 866.89 379.54 L 871.03 389.00 L 872.76 393.49 L 873.93 397.08 L 874.72 400.34 L 875.42 404.34 L 875.95 408.52 L 876.35 412.87 L 876.58 417.20 L 876.63 421.15 L 876.50 424.88 L 876.20 427.65 L 881.74 417.23 L 886.76 407.77 L 890.91 399.94 L 890.11 399.89 L 889.04 394.26 L 888.40 388.60 L 888.18 382.90 L 888.40 377.20 L 889.04 371.54 L 890.11 365.90 L 891.96 359.24 L 894.10 352.69 L 896.43 346.36 L 898.61 340.88 L 902.30 332.39 L 903.83 329.13 L 903.89 331.44 L 904.01 337.39 L 904.13 345.53 L 904.18 354.40 L 904.11 362.54 L 903.83 368.49 L 903.40 371.25 L 902.53 374.66 L 900.13 381.78 L 897.42 388.52 L 895.21 393.55 L 894.29 395.52 L 896.12 394.43 L 900.76 391.74 L 906.91 388.35 L 913.27 385.14 L 916.25 383.83 L 918.54 383.00 L 924.04 381.60 L 932.28 379.81 L 941.60 377.90 L 950.31 376.18 L 956.77 374.93 L 959.29 374.45 L 957.32 375.92 L 952.18 379.68 L 944.98 384.74 L 936.85 390.09 L 932.72 392.61 L 928.92 394.74 L 925.23 396.57 L 922.32 397.71 L 918.55 398.67 L 914.14 399.38 L 909.60 399.82 L 905.06 400.07 L 896.87 400.14 L 891.38 399.96 L 887.26 408.72 L 882.34 419.17 L 877.11 430.26 L 879.40 429.60 L 883.08 428.96 L 887.13 428.52 L 891.86 428.24 L 896.70 428.18 L 901.53 428.35 L 906.22 428.79 L 910.19 429.50 L 913.53 430.39 L 917.64 431.70 L 926.24 434.83 L 934.38 438.07 L 940.45 440.61 L 942.84 441.63 L 940.05 441.85 L 933.00 442.30 L 923.65 442.74 L 913.95 442.88 L 909.43 442.76 L 905.89 442.47 L 902.21 441.87 L 897.73 440.83 L 893.17 439.54 L 888.63 438.04 L 884.28 436.40 L 880.76 434.85 L 877.74 433.20 L 876.29 432.01 L 871.01 443.18 L 866.62 452.44 L 863.70 458.54 L 861.03 463.68 L 857.09 470.77 L 860.21 470.08 L 864.59 469.45 L 869.30 469.03 L 874.60 468.79 L 879.98 468.78 L 885.27 469.01 L 890.40 469.53 L 894.77 470.32 L 898.71 471.38 L 903.57 472.93 L 913.73 476.62 L 923.36 480.45 L 930.53 483.45 L 933.35 484.66 L 930.06 484.92 L 921.72 485.45 L 910.67 485.97 L 899.22 486.14 L 893.87 485.99 L 889.68 485.66 L 885.56 484.99 L 880.57 483.86 L 875.47 482.44 L 870.34 480.79 L 865.38 478.97 L 861.19 477.21 L 857.47 475.34 L 855.31 473.89 L 849.29 484.31 L 842.88 495.23 L 836.73 505.63 L 831.47 514.48 L 834.39 513.93 L 838.80 513.53 L 843.58 513.38 L 849.09 513.46 L 854.69 513.80 L 860.22 514.40 L 865.58 515.30 L 870.10 516.43 L 873.96 517.77 L 878.69 519.65 L 888.57 524.04 L 897.91 528.53 L 904.86 532.03 L 907.58 533.43 L 904.28 533.45 L 895.93 533.41 L 884.87 533.15 L 873.43 532.53 L 868.11 532.00 L 863.95 531.38 L 860.62 530.62 L 856.67 529.49 L 852.63 528.14 L 848.43 526.57 L 840.45 523.14 L 836.82 521.34 L 833.93 519.72 L 831.44 518.05 L 830.08 516.82 L 828.11 520.15 L 822.72 529.15 L 815.33 541.28 L 806.68 555.07 L 809.89 554.62 L 814.31 554.32 L 819.01 554.24 L 824.27 554.38 L 829.60 554.74 L 834.80 555.34 L 839.84 556.22 L 844.10 557.30 L 847.96 558.63 L 852.69 560.51 L 862.57 564.91 L 871.91 569.40 L 878.86 572.89 L 881.58 574.30 L 878.28 574.32 L 869.93 574.28 L 858.87 574.02 L 847.43 573.39 L 842.11 572.87 L 837.95 572.25 L 833.93 571.31 L 829.10 569.85 L 824.18 568.11 L 819.23 566.13 L 814.44 564.00 L 810.39 561.98 L 806.79 559.87 L 804.64 558.26 L 796.24 570.98 L 788.12 582.50 L 782.39 590.26 L 785.49 589.79 L 790.01 589.47 L 794.89 589.41 L 800.45 589.58 L 806.09 589.99 L 811.65 590.66 L 817.03 591.62 L 821.58 592.80 L 825.55 594.19 L 830.42 596.14 L 840.61 600.68 L 850.23 605.31 L 857.40 608.91 L 860.21 610.36 L 856.82 610.34 L 848.26 610.20 L 836.92 609.80 L 825.19 609.03 L 819.73 608.44 L 815.46 607.76 L 812.04 606.96 L 807.98 605.77 L 803.83 604.37 L 799.51 602.74 L 791.30 599.20 L 787.56 597.35 L 784.57 595.69 L 781.99 593.98 L 780.58 592.72 L 771.48 605.02 L 761.77 618.02 L 752.18 630.67 L 755.30 630.07 L 760.24 629.60 L 765.63 629.40 L 771.93 629.46 L 778.37 629.77 L 784.80 630.37 L 791.04 631.29 L 796.35 632.47 L 800.86 633.84 L 806.42 635.78 L 818.07 640.30 L 829.12 644.93 L 837.36 648.53 L 840.59 649.98 L 837.95 650.01 L 831.04 650.02 L 821.37 649.93 L 810.47 649.62 L 799.86 649.02 L 794.97 648.56 L 791.04 648.01 L 787.04 647.21 L 782.24 645.98 L 777.33 644.51 L 772.22 642.82 L 767.18 640.98 L 762.56 639.13 L 758.22 637.21 L 754.87 635.51 L 752.04 633.76 L 750.73 632.55 L 741.85 643.87 L 734.81 652.27 L 729.55 658.10 L 722.85 665.46 L 726.57 664.86 L 731.59 664.39 L 736.94 664.14 L 742.89 664.11 L 748.92 664.32 L 754.82 664.78 L 760.54 665.55 L 765.42 666.58 L 769.94 667.90 L 775.51 669.81 L 787.18 674.31 L 798.22 678.93 L 806.46 682.54 L 809.69 683.99 L 807.02 684.10 L 800.01 684.33 L 790.23 684.52 L 779.19 684.53 L 768.46 684.21 L 763.52 683.86 L 759.56 683.40 L 755.75 682.71 L 751.21 681.62 L 746.56 680.31 L 741.71 678.77 L 736.90 677.08 L 732.40 675.34 L 728.13 673.51 L 724.66 671.84 L 721.61 670.10 L 719.83 668.76 L 711.18 678.21 L 702.81 687.34 L 695.65 695.12 L 690.66 700.54 L 688.78 702.57 L 642.32 740.72 L 645.05 737.91 L 652.39 730.34 L 663.09 719.28 L 675.89 706.02 L 689.55 691.83 L 702.79 678.00 L 714.38 665.80 Z" fill="#2f7753" fill-rule="nonzero" group-id="1,4" id="联合_2" node-id="12" stroke="none" target-height="411.58997" target-width="316.964" target-x="642.32324" target-y="329.13098"></path><path d="M 702.44 204.30 L 700.98 202.77 L 699.25 201.39 L 696.35 199.69 L 694.19 198.76 L 691.49 197.98 L 688.15 197.38 L 684.80 197.17 L 680.79 197.40 L 676.01 198.15 L 671.36 199.37 L 665.92 201.37 L 659.55 204.30 L 655.28 206.87 L 651.51 209.85 L 648.19 213.23 L 645.25 216.98 L 642.68 220.99 L 640.47 225.28 L 638.59 229.75 L 637.01 234.30 L 635.72 238.96 L 634.24 246.00 L 633.28 252.77 L 632.71 259.40 L 632.49 265.21 L 632.51 270.67 L 632.68 274.79 L 633.19 280.02 L 634.29 285.33 L 636.21 293.21 L 638.73 302.23 L 641.64 310.98 L 643.23 314.93 L 644.72 318.03 L 641.03 316.76 L 635.57 315.00 L 632.62 314.26 L 629.91 313.81 L 627.37 313.75 L 625.61 314.21 L 624.94 314.81 L 624.28 315.95 L 623.64 317.90 L 623.05 321.05 L 622.65 325.15 L 622.49 329.46 L 622.54 334.00 L 622.80 338.48 L 623.24 342.44 L 623.91 346.09 L 624.66 348.49 L 625.04 349.87 L 625.02 351.00 L 624.67 351.95 L 623.67 353.26 L 622.11 354.56 L 618.36 357.26 L 616.50 358.91 L 614.83 360.97 L 613.97 362.53 L 613.33 364.40 L 612.92 366.65 L 612.70 370.49 L 612.62 375.77 L 612.76 387.64 L 613.02 399.93 L 613.05 410.31 L 612.85 414.39 L 612.52 416.45 L 610.61 422.38 L 607.40 432.89 L 605.65 439.35 L 603.87 446.87 L 602.32 454.72 L 601.03 463.21 L 600.17 471.89 L 599.86 480.80 L 599.52 485.72 L 598.63 490.53 L 597.16 495.27 L 595.24 499.86 L 592.97 504.31 L 590.34 508.62 L 585.96 514.75 L 581.32 520.33 L 576.47 525.52 L 571.99 529.89 L 564.27 536.78 L 560.06 540.49 L 556.22 545.06 L 553.50 548.67 L 550.18 553.46 L 546.94 558.67 L 543.67 564.65 L 540.77 570.96 L 538.38 577.64 L 537.17 582.22 L 536.39 586.80 L 536.03 591.39 L 535.57 608.70 L 535.10 617.31 L 534.31 625.63 L 533.54 631.12 L 532.52 636.37 L 531.27 641.39 L 529.67 646.31 L 527.72 650.91 L 525.43 655.22 L 523.28 658.44 L 521.15 661.06 L 519.04 663.15 L 515.58 665.84 L 512.08 667.86 L 508.44 669.53 L 504.73 670.99 L 500.98 672.46 L 497.15 674.16 L 493.39 676.22 L 489.52 678.99 L 487.10 681.24 L 484.54 684.21 L 481.80 688.02 L 479.35 691.99 L 476.94 696.48 L 474.56 701.54 L 472.44 706.69 L 470.53 712.11 L 468.84 717.79 L 467.44 723.55 L 466.39 729.29 L 465.69 735.02 L 465.39 740.78 L 465.56 746.26 L 466.18 751.49 L 467.12 755.10 L 468.66 758.84 L 470.86 762.73 L 473.42 766.42 L 476.42 770.14 L 479.87 773.90 L 485.40 779.26 L 491.36 784.41 L 497.53 789.27 L 503.51 793.64 L 509.40 797.68 L 514.46 800.98 L 522.38 805.83 L 525.43 807.58 L 645.08 764.78 L 690.55 671.78 L 739.99 493.19 L 739.99 413.48 L 729.66 321.23 Z" fill="#519886" fill-rule="nonzero" group-id="1,5" id="路径_30" node-id="14" stroke="none" target-height="610.4111" target-width="274.6006" target-x="465.39404" target-y="197.16888"></path><path d="M 709.94 204.82 L 708.21 204.78 L 703.85 204.97 L 701.12 205.30 L 698.05 205.88 L 694.99 206.76 L 692.01 208.00 L 689.27 209.66 L 686.94 211.80 L 681.02 218.59 L 677.83 222.44 L 674.66 226.59 L 671.74 230.91 L 669.28 235.27 L 667.91 238.29 L 666.91 241.22 L 666.26 244.10 L 665.90 247.30 L 665.65 251.86 L 665.61 262.55 L 666.10 274.69 L 667.09 286.80 L 667.77 292.53 L 668.53 297.42 L 669.47 301.93 L 670.40 305.08 L 671.59 308.86 L 672.86 314.31 L 673.83 320.25 L 674.50 327.34 L 674.67 332.19 L 674.56 337.29 L 674.15 342.67 L 673.40 348.00 L 672.24 353.37 L 670.64 358.80 L 668.59 364.07 L 665.99 369.20 L 662.81 374.23 L 663.96 375.99 L 665.67 377.95 L 668.07 380.12 L 672.05 383.11 L 677.00 386.31 L 682.27 389.35 L 687.95 392.36 L 699.31 397.83 L 709.44 402.28 L 716.71 405.28 L 719.49 406.38 L 716.12 406.18 L 707.03 405.25 L 701.06 404.39 L 693.83 403.08 L 686.31 401.40 L 678.07 399.14 L 669.80 396.38 L 661.35 392.94 L 661.33 396.46 L 661.54 401.45 L 662.00 406.81 L 662.77 413.07 L 663.83 419.51 L 665.25 426.28 L 667.02 433.02 L 669.18 439.55 L 670.88 443.79 L 672.75 447.72 L 674.79 451.34 L 678.19 457.35 L 680.92 463.05 L 683.04 468.48 L 684.78 474.07 L 685.98 479.13 L 686.70 483.72 L 687.06 488.39 L 687.03 492.29 L 686.68 495.52 L 686.10 497.38 L 684.83 499.76 L 682.62 502.82 L 678.74 507.24 L 673.41 512.53 L 667.52 517.86 L 660.73 523.61 L 653.64 529.31 L 646.25 535.00 L 638.78 540.54 L 631.64 545.65 L 625.86 550.00 L 620.41 554.58 L 615.27 559.39 L 610.35 564.44 L 605.90 569.41 L 601.89 574.28 L 596.36 581.68 L 592.14 588.10 L 588.65 594.26 L 586.67 598.63 L 586.48 599.76 L 586.61 601.11 L 587.17 602.75 L 588.27 604.78 L 591.03 608.56 L 595.22 613.16 L 599.96 617.73 L 605.48 622.61 L 611.23 627.38 L 617.03 631.97 L 627.80 640.10 L 635.77 645.82 L 638.88 647.98 L 584.35 621.88 L 584.47 624.73 L 584.33 632.37 L 583.96 637.38 L 583.22 643.43 L 582.10 649.69 L 580.41 656.53 L 578.99 661.07 L 577.25 665.66 L 575.17 670.30 L 572.78 674.78 L 569.99 679.14 L 566.78 683.38 L 576.16 688.49 L 588.59 694.90 L 602.42 701.84 L 616.03 708.57 L 627.78 714.31 L 636.03 718.31 L 639.14 719.82 L 635.98 718.67 L 627.62 715.68 L 615.74 711.46 L 602.02 706.67 L 588.15 701.94 L 575.80 697.90 L 566.65 695.21 L 563.41 694.50 L 562.39 694.49 L 557.98 696.29 L 554.52 697.87 L 550.04 700.18 L 545.43 702.87 L 540.44 706.25 L 535.63 710.10 L 531.04 714.58 L 528.28 717.87 L 525.85 721.43 L 523.73 725.27 L 522.65 728.23 L 521.82 731.99 L 521.29 736.72 L 521.11 744.02 L 521.49 752.58 L 522.30 761.39 L 523.49 770.61 L 524.92 779.80 L 526.48 788.55 L 529.63 804.15 L 532.13 815.16 L 533.14 819.33 L 645.34 793.80 L 705.81 649.69 L 707.08 645.95 L 710.47 635.81 L 715.37 620.85 L 721.18 602.66 L 727.26 582.83 L 733.02 562.96 L 737.83 544.62 L 739.74 536.28 L 741.08 529.43 L 742.10 522.44 L 743.05 513.34 L 743.81 503.63 L 744.46 492.46 L 745.35 468.55 L 745.74 443.35 L 745.68 418.62 L 745.19 396.12 L 744.32 377.60 L 743.71 369.98 L 743.10 364.83 L 739.39 342.18 L 736.05 323.42 L 734.69 315.06 L 733.69 307.72 L 732.85 303.10 L 731.21 297.00 L 729.17 290.60 L 726.69 283.49 L 721.45 269.17 L 716.85 255.98 L 715.12 250.15 L 714.21 245.91 L 712.99 236.61 L 711.83 225.79 L 710.86 215.51 L 710.19 207.84 L 709.94 204.82 Z" fill="#b7d99d" fill-rule="nonzero" group-id="1,5" id="路径_31" node-id="15" stroke="none" target-height="614.54944" target-width="224.6289" target-x="521.11084" target-y="204.77753"></path><path d="M 493.31 810.22 L 496.65 807.45 L 505.92 799.95 L 520.03 788.99 L 537.86 775.83 L 547.72 768.89 L 558.31 761.74 L 569.15 754.74 L 580.27 747.95 L 591.54 741.54 L 602.64 735.75 L 610.15 732.18 L 617.37 729.06 L 624.32 726.38 L 649.68 716.78 L 663.39 711.61 L 678.64 706.21 L 689.02 702.79 L 700.26 699.42 L 712.38 696.12 L 724.56 693.18 L 737.78 690.46 L 752.11 687.99 L 766.46 686.01 L 782.07 684.44 L 799.01 683.30 L 811.56 682.84 L 824.93 682.70 L 839.15 682.92 L 854.27 683.52 L 869.02 684.47 L 884.71 685.87 L 901.38 687.74 L 919.09 690.13 L 919.00 690.71 L 918.28 692.28 L 916.22 695.74 L 912.79 700.92 L 907.45 708.52 L 893.89 726.80 L 885.82 737.26 L 876.64 748.88 L 867.06 760.71 L 856.77 773.08 L 846.23 785.44 L 835.41 797.72 L 824.43 809.76 L 813.63 821.11 L 802.77 831.97 L 792.54 841.56 L 785.61 847.65 L 779.18 852.90 L 773.24 857.39 L 763.01 864.50 L 752.21 871.55 L 740.81 878.53 L 728.80 885.44 L 716.73 891.95 L 704.22 898.26 L 691.25 904.35 L 677.82 910.23 L 664.31 915.70 L 650.49 920.84 L 636.37 925.64 L 621.92 930.10 L 607.39 934.11 L 592.69 937.67 L 577.81 940.77 L 562.75 943.42 L 549.31 945.27 L 537.41 946.49 L 526.91 947.13 L 516.35 947.34 L 507.15 947.15 L 499.18 946.60 L 491.21 945.69 L 484.44 944.60 L 478.74 943.36 L 470.64 941.09 L 464.73 938.92 L 459.59 936.58 L 456.33 934.79 L 452.70 932.50 L 452.04 931.75 L 450.79 929.41 L 447.99 922.65 L 444.71 913.72 L 441.41 904.14 L 438.51 895.43 L 436.45 889.10 L 435.67 886.65 L 452.70 827.69 Z" fill="#5aa07b" fill-rule="nonzero" group-id="1,6" id="路径_58" node-id="17" stroke="none" target-height="264.63574" target-width="483.4253" target-x="435.66797" target-y="682.7035"></path><path d="M 496.51 877.99 L 482.50 887.35 L 469.39 896.71 L 460.89 903.17 L 453.01 909.57 L 445.71 915.91 L 438.02 922.65 L 432.66 927.05 L 427.88 930.58 L 425.04 932.30 L 423.23 933.06 L 422.23 933.20 L 421.70 933.01 L 421.38 932.55 L 421.29 931.78 L 421.53 930.54 L 422.22 928.64 L 423.37 926.25 L 426.09 921.50 L 428.55 917.66 L 429.63 916.07 L 430.93 914.67 L 435.82 910.17 L 439.75 906.89 L 445.81 902.14 L 452.77 896.97 L 462.39 890.15 L 473.12 882.86 L 487.07 873.75 L 490.31 871.69 L 490.28 865.79 L 490.54 854.87 L 490.88 848.21 L 491.45 840.58 L 492.26 832.74 L 493.38 824.53 L 494.84 816.34 L 496.68 808.37 L 496.11 813.44 L 495.70 819.67 L 495.49 826.18 L 495.43 833.16 L 495.62 846.94 L 496.05 859.12 L 496.48 867.83 L 507.06 861.44 L 518.05 855.02 L 540.32 842.52 L 540.34 834.55 L 540.59 828.92 L 541.16 821.71 L 542.05 814.09 L 543.46 805.39 L 545.37 796.48 L 547.97 786.98 L 550.06 780.67 L 552.52 774.30 L 555.38 767.87 L 553.02 777.28 L 551.15 785.89 L 549.73 793.75 L 548.10 805.29 L 547.19 814.80 L 546.72 823.62 L 546.63 830.14 L 546.96 838.90 L 573.72 824.62 L 597.71 812.05 L 597.51 808.35 L 597.51 802.17 L 597.87 795.20 L 598.88 785.86 L 599.87 779.42 L 601.31 772.01 L 603.28 763.55 L 605.56 755.20 L 608.49 745.92 L 612.16 735.62 L 609.14 748.62 L 606.85 760.05 L 605.20 770.05 L 603.35 784.46 L 602.47 795.14 L 602.09 804.53 L 602.10 809.76 L 616.00 802.39 L 626.45 796.56 L 636.35 791.14 L 647.74 785.51 L 647.81 778.88 L 648.04 773.48 L 648.56 765.97 L 649.36 757.83 L 650.64 748.02 L 652.34 737.78 L 654.71 726.30 L 653.06 740.59 L 652.03 754.89 L 651.62 769.22 L 651.82 783.60 L 660.97 779.47 L 670.69 775.25 L 690.63 767.00 L 710.54 759.15 L 712.06 750.93 L 713.49 744.77 L 715.71 736.59 L 718.46 727.92 L 722.20 717.81 L 725.03 711.02 L 728.36 703.84 L 732.23 696.25 L 729.61 702.95 L 727.30 710.03 L 725.30 717.23 L 723.61 724.33 L 722.16 731.34 L 721.02 737.73 L 719.37 748.79 L 718.52 756.09 L 736.21 749.41 L 751.39 743.75 L 763.06 739.37 L 764.61 733.98 L 766.35 729.26 L 769.36 722.51 L 771.73 717.91 L 774.79 712.68 L 778.64 706.77 L 782.77 701.10 L 787.78 695.03 L 793.75 688.51 L 786.82 699.23 L 781.82 707.82 L 777.65 715.89 L 774.92 722.00 L 772.82 727.59 L 771.68 731.41 L 770.95 734.70 L 770.72 736.39 L 780.30 732.99 L 793.77 728.53 L 809.80 723.38 L 827.09 717.94 L 827.66 715.59 L 828.68 713.05 L 830.23 710.28 L 833.00 706.33 L 836.31 702.36 L 839.86 698.60 L 843.24 695.31 L 848.93 690.25 L 851.29 688.31 L 849.54 690.32 L 845.27 695.44 L 839.97 702.37 L 837.36 706.14 L 835.10 709.78 L 833.23 713.40 L 832.16 716.36 L 852.44 710.07 L 869.79 704.74 L 881.88 701.05 L 886.43 699.67 L 882.80 700.88 L 872.80 704.22 L 857.71 709.32 L 838.83 715.79 L 839.86 717.08 L 842.50 719.79 L 845.89 722.66 L 851.29 726.38 L 855.26 728.69 L 860.25 731.13 L 866.42 733.71 L 863.61 733.51 L 860.77 733.03 L 857.89 732.24 L 853.67 730.67 L 849.61 728.74 L 845.73 726.56 L 842.30 724.37 L 836.69 720.28 L 833.49 717.64 L 811.52 725.34 L 788.70 733.53 L 791.20 735.68 L 796.92 740.12 L 803.87 745.01 L 814.14 751.51 L 821.52 755.78 L 830.36 760.46 L 840.84 765.57 L 837.47 765.00 L 833.82 764.09 L 829.89 762.82 L 824.06 760.54 L 818.00 757.76 L 812.02 754.70 L 806.23 751.47 L 795.64 745.01 L 787.29 739.46 L 782.24 735.90 L 760.02 744.23 L 740.04 752.14 L 729.04 756.66 L 732.78 759.69 L 740.94 765.76 L 750.76 772.49 L 765.18 781.54 L 775.52 787.57 L 787.91 794.31 L 802.59 801.81 L 797.03 800.24 L 791.35 798.34 L 785.54 796.11 L 776.99 792.38 L 768.56 788.25 L 760.35 783.85 L 752.70 779.44 L 745.37 774.96 L 739.02 770.89 L 728.59 763.79 L 722.46 759.36 L 702.36 767.70 L 683.97 775.59 L 666.19 783.67 L 675.14 791.09 L 681.80 796.29 L 690.59 802.83 L 700.15 809.54 L 711.42 816.94 L 719.22 821.76 L 727.57 826.61 L 736.49 831.47 L 745.55 836.06 L 754.94 840.39 L 764.69 844.47 L 752.65 840.37 L 741.55 836.15 L 731.31 831.80 L 721.21 827.09 L 712.08 822.49 L 703.87 817.99 L 692.11 810.99 L 682.59 804.75 L 673.98 798.62 L 667.72 793.80 L 662.36 789.39 L 659.49 786.86 L 648.76 792.14 L 637.15 798.08 L 625.20 804.42 L 611.69 811.81 L 599.25 818.67 L 602.63 821.26 L 609.09 825.83 L 616.76 830.82 L 627.75 837.37 L 640.07 844.09 L 655.99 851.98 L 667.16 857.09 L 679.98 862.54 L 694.60 868.35 L 683.95 865.48 L 673.85 862.33 L 664.30 858.92 L 654.85 855.17 L 646.15 851.41 L 638.15 847.64 L 626.63 841.73 L 617.12 836.38 L 608.44 831.12 L 602.14 827.02 L 594.20 821.44 L 575.86 831.50 L 556.79 842.07 L 565.18 848.01 L 577.68 856.87 L 592.66 867.49 L 608.48 878.72 L 623.50 889.38 L 636.07 898.32 L 644.56 904.38 L 627.36 894.49 L 608.49 883.09 L 589.63 871.35 L 572.46 860.46 L 558.68 851.58 L 549.96 845.91 L 526.97 859.18 L 515.56 866.03 L 504.34 872.98 L 506.04 875.21 L 510.39 880.39 L 515.83 886.30 L 524.28 894.61 L 530.46 900.24 L 538.06 906.68 L 547.27 914.01 L 556.70 921.03 L 567.75 928.67 L 580.60 936.98 L 573.96 934.22 L 567.41 931.15 L 560.93 927.76 L 551.50 922.26 L 542.54 916.45 L 533.95 910.36 L 526.16 904.42 L 518.80 898.44 L 512.54 893.07 L 502.40 883.79 L 496.51 877.99 Z" fill="#0e7768" fill-rule="nonzero" group-id="1,6,8" id="联合_4" node-id="18" stroke="none" target-height="248.66101" target-width="465.13855" target-x="421.28857" target-y="688.31396"></path><path d="M 94.64 656.94 L 95.01 655.65 L 96.06 654.10 L 98.07 652.17 L 101.63 649.60 L 106.65 646.70 L 112.17 644.02 L 118.49 641.38 L 125.04 639.04 L 131.68 637.05 L 138.30 635.48 L 144.30 634.53 L 148.28 634.23 L 151.64 634.29 L 154.46 634.67 L 157.14 635.56 L 160.08 637.11 L 163.33 639.44 L 167.92 643.55 L 172.81 648.71 L 177.52 654.27 L 182.14 660.11 L 190.57 671.29 L 194.36 676.26 L 197.32 679.90 L 199.37 682.09 L 200.74 683.18 L 201.63 683.58 L 202.40 683.40 L 203.10 682.58 L 203.75 680.68 L 204.16 677.36 L 204.07 672.32 L 203.41 666.87 L 202.01 660.32 L 200.73 655.92 L 199.07 651.32 L 197.00 646.51 L 194.61 641.86 L 191.78 637.25 L 188.48 632.69 L 184.80 628.44 L 180.61 624.44 L 175.86 620.69 L 177.96 619.08 L 180.55 617.49 L 183.69 615.92 L 188.65 613.93 L 194.31 612.12 L 200.18 610.63 L 206.23 609.41 L 212.28 608.48 L 217.95 607.89 L 223.43 607.61 L 227.98 607.69 L 232.12 608.15 L 234.82 608.90 L 237.08 610.16 L 239.62 612.20 L 242.49 615.22 L 245.05 618.48 L 247.66 622.38 L 250.33 626.97 L 252.72 631.70 L 254.94 636.79 L 256.97 642.25 L 258.69 647.81 L 260.04 653.43 L 261.02 659.12 L 263.47 675.86 L 264.83 683.82 L 266.20 690.78 L 267.74 697.28 L 269.19 702.11 L 270.38 705.12 L 271.44 706.98 L 272.37 708.03 L 272.90 708.17 L 273.48 707.75 L 274.22 706.28 L 275.03 703.55 L 275.91 699.14 L 276.63 694.25 L 277.30 688.29 L 277.83 682.07 L 278.23 675.40 L 278.47 668.68 L 278.55 662.14 L 278.42 655.76 L 278.10 650.19 L 277.51 645.00 L 276.74 641.22 L 275.29 637.10 L 272.96 632.31 L 270.16 627.51 L 266.87 622.49 L 263.37 617.57 L 259.82 612.89 L 253.13 604.63 L 248.13 598.85 L 246.17 596.68 L 249.61 596.85 L 258.62 597.35 L 271.23 598.12 L 285.47 599.10 L 299.36 600.24 L 310.94 601.49 L 315.56 602.19 L 318.23 602.79 L 321.54 603.89 L 325.69 605.61 L 329.90 607.77 L 334.35 610.59 L 337.19 612.76 L 339.89 615.22 L 342.47 618.01 L 344.74 621.03 L 346.68 624.39 L 348.30 628.13 L 349.42 632.03 L 350.04 636.37 L 350.11 641.22 L 349.55 648.71 L 348.69 656.86 L 346.48 673.47 L 344.15 689.60 L 342.40 703.77 L 341.94 709.95 L 341.90 714.55 L 342.31 721.44 L 342.93 726.72 L 343.61 730.05 L 344.44 732.59 L 345.39 734.51 L 346.69 736.13 L 348.24 737.18 L 350.11 737.73 L 351.29 737.60 L 352.84 736.87 L 354.91 735.22 L 357.75 732.15 L 361.08 727.54 L 364.17 722.32 L 367.24 716.00 L 369.05 711.58 L 370.65 706.89 L 372.05 701.93 L 373.12 696.89 L 373.81 691.80 L 374.12 686.64 L 373.97 679.94 L 373.31 672.09 L 372.27 664.03 L 370.92 655.60 L 369.37 647.19 L 367.74 639.20 L 364.52 624.95 L 362.03 614.89 L 361.02 611.09 L 364.02 612.90 L 372.04 617.76 L 383.61 624.81 L 397.25 633.18 L 411.49 642.01 L 424.87 650.44 L 435.90 657.59 L 443.12 662.62 L 450.45 667.96 L 453.76 670.49 L 456.62 673.06 L 459.09 675.90 L 461.09 679.17 L 462.08 681.54 L 462.83 684.31 L 463.31 687.55 L 463.47 690.82 L 463.30 694.75 L 462.75 699.44 L 461.46 706.61 L 459.64 714.49 L 457.42 722.44 L 454.76 730.57 L 451.72 738.59 L 448.33 746.28 L 444.56 753.64 L 440.59 760.20 L 437.67 764.32 L 434.73 767.87 L 431.77 770.92 L 424.58 777.82 L 419.80 782.75 L 415.89 787.23 L 413.77 790.11 L 412.41 792.68 L 412.12 794.06 L 412.29 794.50 L 412.87 794.92 L 414.15 795.33 L 416.33 795.51 L 419.73 795.17 L 423.43 794.24 L 428.15 792.37 L 431.28 790.75 L 434.77 788.56 L 438.67 785.71 L 442.33 782.61 L 446.28 778.73 L 450.55 773.98 L 455.61 767.69 L 460.05 761.66 L 463.90 755.86 L 467.21 750.28 L 470.26 744.40 L 472.79 738.68 L 474.83 733.10 L 476.40 727.65 L 477.57 722.05 L 478.31 716.49 L 478.62 710.95 L 478.50 705.41 L 479.75 705.89 L 481.36 707.10 L 483.46 709.37 L 486.27 713.34 L 489.51 719.00 L 492.51 725.26 L 495.48 732.66 L 498.06 740.45 L 500.21 748.76 L 501.32 754.42 L 502.08 760.06 L 502.52 765.68 L 502.75 775.00 L 502.56 783.53 L 502.00 791.33 L 501.24 797.19 L 500.16 802.74 L 498.79 808.02 L 497.12 813.03 L 495.07 817.91 L 492.62 822.66 L 489.73 827.30 L 486.41 831.82 L 482.70 836.10 L 479.16 839.64 L 475.79 842.54 L 470.57 846.38 L 466.16 849.11 L 459.11 853.00 L 457.39 854.09 L 456.53 854.95 L 456.23 855.64 L 456.60 859.96 L 457.40 869.12 L 457.66 874.90 L 457.69 881.73 L 457.35 888.79 L 456.52 896.37 L 455.65 901.45 L 454.46 906.55 L 452.95 911.67 L 451.07 916.67 L 448.77 921.51 L 446.03 926.22 L 442.86 930.63 L 439.13 934.75 L 434.83 938.61 L 425.22 946.09 L 415.46 953.13 L 408.76 957.50 L 401.75 961.52 L 394.43 965.21 L 388.83 967.63 L 382.90 969.79 L 376.63 971.67 L 369.99 973.26 L 363.40 974.44 L 356.29 975.25 L 348.63 975.69 L 340.37 975.70 L 332.37 975.29 L 323.64 974.39 L 314.15 972.95 L 303.82 970.93 L 311.04 966.07 L 317.78 961.09 L 324.06 955.97 L 329.89 950.73 L 337.35 943.30 L 343.97 935.91 L 349.80 928.55 L 355.21 920.85 L 359.78 913.49 L 363.58 906.43 L 366.93 899.13 L 369.46 892.48 L 371.25 886.42 L 372.28 881.66 L 372.85 877.47 L 373.03 873.79 L 372.87 870.55 L 372.27 867.24 L 371.31 864.60 L 370.03 862.51 L 368.45 860.88 L 367.18 860.20 L 365.81 859.97 L 364.26 860.22 L 362.43 861.03 L 360.21 862.55 L 357.60 864.85 L 354.55 868.11 L 350.20 873.48 L 345.20 880.31 L 334.79 895.78 L 323.71 912.70 L 318.00 921.18 L 312.36 929.23 L 306.60 936.93 L 301.13 943.56 L 297.32 947.71 L 293.76 951.11 L 290.44 953.85 L 287.71 955.69 L 285.20 957.00 L 282.86 957.84 L 280.67 958.26 L 276.72 958.36 L 272.28 957.94 L 267.28 956.94 L 262.38 955.56 L 257.16 953.74 L 251.59 951.44 L 243.38 947.48 L 234.92 942.80 L 226.63 937.63 L 218.60 932.08 L 210.91 926.21 L 203.96 920.34 L 197.54 914.27 L 192.32 908.63 L 189.18 904.70 L 186.79 901.17 L 185.03 898.00 L 188.51 898.63 L 192.76 898.84 L 197.94 898.54 L 203.06 897.85 L 208.75 896.77 L 215.06 895.24 L 224.52 892.47 L 234.66 888.98 L 244.82 885.03 L 254.99 880.65 L 264.96 875.95 L 274.30 871.13 L 283.20 866.10 L 290.84 861.31 L 295.69 857.94 L 299.66 854.86 L 302.86 852.07 L 305.81 848.98 L 307.64 846.42 L 308.62 844.29 L 309.34 841.26 L 309.55 838.96 L 309.39 837.23 L 308.86 835.61 L 308.08 834.40 L 307.04 833.52 L 305.10 832.65 L 302.73 832.27 L 300.23 832.31 L 297.64 832.64 L 292.93 833.78 L 289.78 834.80 L 288.56 835.44 L 285.14 837.58 L 275.54 843.86 L 262.36 852.39 L 246.99 861.89 L 238.90 866.63 L 230.82 871.11 L 222.75 875.27 L 215.24 878.76 L 210.20 880.83 L 205.68 882.43 L 201.63 883.59 L 197.32 884.37 L 193.22 884.67 L 189.30 884.52 L 185.54 883.93 L 180.61 882.54 L 175.96 880.61 L 171.55 878.12 L 167.39 875.20 L 163.53 872.01 L 159.97 868.53 L 155.12 862.96 L 151.11 857.48 L 147.69 851.96 L 145.29 847.34 L 139.70 836.15 L 136.87 830.50 L 134.27 824.91 L 132.00 819.26 L 130.31 813.75 L 129.53 810.03 L 129.14 806.39 L 129.14 802.80 L 129.82 803.33 L 131.31 803.98 L 134.08 804.75 L 138.47 805.62 L 144.53 806.49 L 151.05 807.17 L 158.50 807.71 L 166.15 808.04 L 174.00 808.14 L 181.80 807.96 L 189.04 807.47 L 195.97 806.60 L 201.63 805.42 L 209.66 803.22 L 217.21 800.95 L 224.40 798.43 L 230.29 795.87 L 233.93 793.85 L 236.62 791.85 L 238.54 789.88 L 239.60 788.19 L 240.12 786.47 L 240.14 784.67 L 239.62 782.71 L 238.91 781.64 L 237.79 780.74 L 236.14 780.01 L 233.82 779.50 L 230.72 779.23 L 226.83 779.23 L 222.02 779.56 L 214.67 780.42 L 206.10 781.73 L 187.93 784.85 L 178.53 786.40 L 169.36 787.75 L 160.35 788.77 L 152.28 789.26 L 146.01 789.28 L 140.99 789.04 L 137.04 788.59 L 133.12 787.83 L 130.10 786.94 L 127.81 785.97 L 125.67 784.70 L 124.01 783.40 L 122.76 782.06 L 121.20 779.82 L 120.03 777.55 L 117.78 773.11 L 116.42 770.67 L 114.53 766.68 L 112.67 762.19 L 110.63 756.53 L 108.75 750.51 L 107.00 743.74 L 105.58 736.73 L 104.56 729.39 L 104.17 724.44 L 104.06 719.51 L 104.24 714.59 L 106.29 716.76 L 108.88 718.93 L 112.08 721.09 L 117.27 723.93 L 123.33 726.59 L 129.71 728.87 L 136.42 730.82 L 143.21 732.39 L 149.78 733.53 L 156.22 734.23 L 161.85 734.44 L 165.54 734.29 L 168.58 733.90 L 171.07 733.31 L 173.39 732.35 L 174.93 731.20 L 175.86 729.87 L 176.25 728.51 L 176.23 727.41 L 175.87 726.48 L 175.14 725.66 L 173.82 724.80 L 171.95 724.03 L 169.36 723.37 L 165.28 722.71 L 160.30 722.18 L 149.76 721.24 L 144.42 720.59 L 139.50 719.71 L 136.32 718.90 L 133.61 717.91 L 131.32 716.77 L 128.07 714.67 L 124.46 711.93 L 120.43 708.47 L 116.66 704.77 L 112.87 700.48 L 109.05 695.54 L 105.61 690.34 L 102.47 684.60 L 99.63 678.26 L 97.88 673.40 L 96.46 668.24 L 95.38 662.76 L 94.64 656.94 Z" fill="#89c065" fill-rule="nonzero" group-id="1,7" id="路径_48" node-id="20" stroke="none" target-height="379.0254" target-width="408.11133" target-x="94.63721" target-y="596.67596"></path><path d="M 557.57 959.24 L 554.62 954.36 L 549.95 947.83 L 544.55 941.04 L 537.85 933.19 L 530.65 925.22 L 522.62 916.74 L 514.26 908.31 L 505.56 899.92 L 499.06 893.96 L 492.57 888.27 L 480.03 877.63 L 469.12 868.27 L 464.49 863.99 L 461.03 860.44 L 457.30 856.85 L 451.23 852.00 L 444.28 847.03 L 435.52 841.18 L 426.16 835.25 L 415.56 828.77 L 392.96 815.52 L 393.93 819.34 L 395.17 825.06 L 396.34 831.51 L 397.62 840.17 L 398.75 849.66 L 399.85 861.68 L 400.19 869.62 L 400.08 877.18 L 399.53 884.39 L 398.60 891.57 L 397.45 898.17 L 396.09 904.23 L 393.69 912.95 L 391.36 919.95 L 388.95 926.23 L 387.18 930.30 L 385.38 934.03 L 386.79 929.50 L 388.11 924.58 L 389.83 917.02 L 391.37 908.65 L 392.74 898.25 L 393.38 891.09 L 393.72 883.30 L 393.74 874.86 L 393.37 866.45 L 392.48 857.67 L 391.06 848.50 L 388.77 836.89 L 386.90 828.36 L 385.03 820.81 L 383.57 815.69 L 382.12 811.33 L 381.08 808.76 L 361.88 798.06 L 343.44 787.99 L 343.71 791.31 L 343.83 795.90 L 343.66 800.88 L 343.07 806.97 L 342.03 813.34 L 340.30 820.69 L 337.82 828.83 L 335.17 835.98 L 332.15 842.82 L 328.79 849.39 L 325.08 855.87 L 320.81 862.76 L 310.88 877.93 L 306.94 883.48 L 302.37 889.18 L 297.50 894.75 L 292.44 900.14 L 287.29 905.34 L 282.41 910.04 L 273.60 918.07 L 267.34 923.47 L 264.96 925.44 L 273.69 916.93 L 282.04 908.11 L 290.02 898.97 L 297.65 889.51 L 304.92 879.72 L 313.22 867.65 L 316.80 862.04 L 320.05 856.49 L 323.06 850.76 L 326.02 844.38 L 328.79 837.59 L 331.75 829.43 L 333.75 822.91 L 335.32 816.43 L 336.56 809.99 L 337.46 804.02 L 338.12 798.24 L 338.52 793.33 L 338.88 785.52 L 328.06 779.70 L 326.10 781.82 L 322.49 785.21 L 318.29 788.81 L 312.85 793.12 L 306.98 797.43 L 300.30 801.93 L 293.29 806.20 L 285.94 810.16 L 280.90 812.55 L 275.90 814.60 L 270.93 816.32 L 264.05 818.32 L 256.14 820.41 L 239.54 824.37 L 223.15 827.92 L 208.95 830.79 L 198.97 832.71 L 195.19 833.41 L 198.89 832.50 L 208.70 829.96 L 222.77 826.10 L 239.19 821.22 L 247.72 818.48 L 256.10 815.61 L 264.28 812.57 L 271.61 809.57 L 278.48 806.37 L 283.85 803.40 L 290.19 799.30 L 296.31 794.93 L 302.21 790.26 L 307.88 785.31 L 313.30 780.09 L 318.49 774.61 L 302.74 766.31 L 294.20 761.86 L 287.59 758.18 L 275.08 750.99 L 257.95 741.06 L 250.97 743.80 L 239.24 747.86 L 232.16 750.01 L 224.09 752.18 L 215.74 754.08 L 206.90 755.67 L 197.94 756.78 L 189.00 757.28 L 176.72 757.27 L 166.19 756.88 L 156.31 756.20 L 148.57 755.43 L 137.21 753.88 L 133.19 753.15 L 136.96 753.41 L 147.03 753.91 L 161.52 754.23 L 169.73 754.18 L 178.56 753.92 L 187.46 753.41 L 196.27 752.57 L 206.18 751.16 L 215.20 749.40 L 223.82 747.30 L 231.20 745.13 L 238.05 742.76 L 243.31 740.62 L 247.90 738.40 L 250.57 736.76 L 228.17 723.69 L 204.07 709.59 L 179.71 695.32 L 156.55 681.74 L 136.03 669.68 L 119.58 660.02 L 108.65 653.60 L 104.69 651.26 L 204.75 704.61 L 208.39 706.60 L 218.52 712.13 L 233.91 720.54 L 234.43 717.85 L 234.70 713.03 L 234.65 707.63 L 234.36 700.87 L 233.26 686.18 L 231.78 671.07 L 230.26 657.65 L 229.09 648.05 L 228.61 644.38 L 229.81 648.74 L 232.62 660.61 L 234.21 668.52 L 235.89 678.21 L 237.31 688.41 L 238.46 699.74 L 239.12 711.35 L 239.17 723.41 L 255.90 732.54 L 274.48 742.67 L 294.23 753.44 L 296.74 747.99 L 300.19 739.48 L 301.93 734.55 L 303.54 729.27 L 304.86 723.91 L 305.73 718.72 L 306.66 710.33 L 307.41 700.36 L 307.75 689.98 L 307.50 678.72 L 306.94 671.14 L 305.95 663.48 L 304.54 655.71 L 302.73 648.75 L 300.34 641.62 L 297.56 634.61 L 294.63 628.01 L 291.57 621.71 L 288.81 616.41 L 284.29 608.33 L 282.48 605.30 L 284.79 608.05 L 290.40 615.43 L 293.74 620.31 L 297.32 626.12 L 300.63 632.27 L 303.55 638.82 L 305.96 645.67 L 308.10 653.29 L 309.87 661.17 L 311.33 669.45 L 312.45 677.84 L 313.25 686.25 L 313.73 694.62 L 313.89 702.62 L 313.63 708.37 L 312.87 714.84 L 311.76 721.42 L 310.36 728.10 L 308.78 734.69 L 307.18 740.75 L 304.13 751.16 L 302.03 757.69 L 329.82 772.82 L 356.18 787.14 L 356.79 786.74 L 360.03 784.62 L 363.34 781.93 L 366.75 778.59 L 369.90 775.02 L 373.04 771.02 L 376.16 766.57 L 380.50 759.62 L 384.59 752.18 L 388.30 744.53 L 391.56 736.91 L 394.40 729.30 L 396.63 722.28 L 398.36 715.45 L 399.35 709.78 L 399.90 704.05 L 400.23 697.24 L 400.33 690.18 L 400.27 682.74 L 399.77 668.17 L 399.05 655.43 L 398.39 646.40 L 398.11 642.97 L 398.95 646.54 L 400.82 656.26 L 401.81 662.72 L 402.77 670.61 L 403.46 678.90 L 403.83 688.07 L 403.73 697.44 L 403.04 707.13 L 402.21 713.59 L 401.01 719.97 L 399.45 726.28 L 397.23 733.29 L 394.74 739.93 L 392.01 746.23 L 387.46 755.31 L 382.86 763.31 L 378.05 770.76 L 373.73 776.84 L 369.51 782.31 L 366.34 786.14 L 362.41 790.52 L 381.76 801.00 L 397.11 809.27 L 404.52 809.34 L 409.47 809.20 L 415.34 808.81 L 421.36 808.15 L 427.58 807.10 L 433.68 805.59 L 439.28 803.60 L 444.43 801.03 L 449.69 797.72 L 454.74 793.99 L 459.49 790.07 L 463.96 786.04 L 467.71 782.42 L 473.36 776.54 L 475.46 774.18 L 472.19 779.88 L 468.52 785.27 L 464.44 790.37 L 459.98 795.14 L 455.18 799.54 L 450.01 803.60 L 446.81 805.65 L 443.37 807.45 L 439.67 809.02 L 433.94 810.93 L 428.12 812.38 L 422.30 813.45 L 416.91 814.16 L 411.75 814.63 L 407.57 814.86 L 417.85 820.70 L 429.21 827.65 L 440.69 835.09 L 452.65 843.22 L 464.55 851.67 L 476.34 860.34 L 487.88 869.17 L 498.71 877.76 L 509.10 886.35 L 518.22 894.24 L 527.00 902.50 L 535.21 911.03 L 542.93 919.76 L 549.71 927.99 L 555.97 936.06 L 560.98 942.87 L 568.29 953.43 L 570.89 957.45 L 568.99 957.73 L 564.71 958.35 L 560.21 958.97 L 557.66 959.25 L 557.57 959.24 Z" fill="#277349" fill-rule="nonzero" group-id="1,7,9" id="联合_3" node-id="21" stroke="none" target-height="353.948" target-width="466.20398" target-x="104.68701" target-y="605.302"></path></g></svg>